<svg viewBox="0 0 200 200" xmlns="http://www.w3.org/2000/svg">
    <path d="m196.4 163.1h-18.4c-2 0-3.6-1.6-3.6-3.6v-6.5c0-2 1.6-3.6 3.6-3.6h4.8c2 0 3.6-1.6 3.6-3.6v-91.6c0-2-1.6-3.6-3.6-3.6h-4.8c-2 0-3.6-1.6-3.6-3.6v-6.5c0-2 1.6-3.6 3.6-3.6h18.5c2 0 3.6 1.6 3.6 3.6v119c-.1 2-1.7 3.6-3.7 3.6z"
          fill="#0e86ff"/>
    <path d="m3.6 163.1h18.4c2 0 3.6-1.6 3.6-3.6v-6.5c0-2-1.6-3.6-3.6-3.6h-4.8c-2 0-3.6-1.6-3.6-3.6v-91.6c0-2 1.6-3.6 3.6-3.6h4.8c2 0 3.6-1.6 3.6-3.6v-6.5c0-2-1.6-3.6-3.6-3.6h-18.4c-2 0-3.6 1.6-3.6 3.5v119c0 2.1 1.6 3.7 3.6 3.7z"
          fill="#0e86ff"/>
    <g fill="#0e86ff">
        <path d="m147.9 20.1h-95.8c-8.4 0-15.1 6.8-15.1 15.1v129.6c0 8.4 6.8 15.1 15.1 15.1h95.9c8.3 0 15.1-6.8 15.1-15.1v-129.6c0-8.3-6.8-15.1-15.2-15.1zm1.5 144.7c0 .8-.7 1.5-1.5 1.5h-95.8c-.8 0-1.5-.7-1.5-1.5v-129.6c0-.8.7-1.5 1.5-1.5h95.9c.8 0 1.5.7 1.5 1.5v129.6z"/>
        <path d="m150.8 153.6-19.8-25.8c-2.4-3.1-6.9-3.6-9.9-1l-16.1 13.7c-3.1 2.6-7.7 2-10-1.3l-17.7-25.2c-2.3-3.2-6.8-3.9-9.9-1.4l-19.4 15.9c-2.9 2.4-7.2 1.9-9.6-1s-1.9-7.2 1-9.6l30.8-25c3.1-2.5 7.6-1.9 9.9 1.4l17.5 24.8c2.3 3.3 7 3.9 10 1.3l15.6-13.3c3-2.5 7.5-2.1 9.9 1l28.6 37.2c2.3 3 1.7 7.3-1.2 9.6-3.1 2.2-7.4 1.7-9.7-1.3zm-38.4-64.1c-2.7 0-5.4-.5-8-1.6-10.8-4.4-15.9-16.7-11.5-27.5s16.7-15.9 27.5-11.5c5.2 2.1 9.3 6.2 11.4 11.4 2.2 5.2 2.2 10.9.1 16.1-3.3 8.2-11.2 13.1-19.5 13.1zm0-32.4c-1.5 0-3 .3-4.4.9-2.8 1.2-5 3.4-6.1 6.2-1.2 2.8-1.1 5.9.1 8.7s3.4 5 6.2 6.1l-1.8 4.5 1.8-4.5c5.8 2.4 12.4-.4 14.8-6.2 1.2-2.8 1.1-5.9-.1-8.7s-3.4-5-6.2-6.1c-1.4-.6-2.8-.9-4.3-.9z"/>
    </g>
</svg>
