<svg width="33" height="41" viewBox="0 0 33 41" fill="none" xmlns="http://www.w3.org/2000/svg">
<g id="Group">
<g id="_&#229;&#156;&#150;&#229;&#177;&#164;_2">
<g id="_0">
<path id="Vector" fill-rule="evenodd" clip-rule="evenodd" d="M32.8233 15.1614L25.0883 13.4277L14.3444 15.1447C14.3444 15.1447 16.7728 17.8202 16.969 17.8202C17.1653 17.8202 32.8233 15.1614 32.8233 15.1614Z" fill="url(#paint0_linear_2287_19919)"/>
<path id="Vector_2" style="mix-blend-mode:multiply" opacity="0.5" fill-rule="evenodd" clip-rule="evenodd" d="M21.8913 13.9355L14.3444 15.1441C14.3444 15.1441 16.7728 17.8195 16.969 17.8195C17.108 17.8195 21.3598 17.1694 26.0041 16.3776C27.0261 16.2026 28.6532 15.4441 26.8708 14.4356C25.0883 13.4271 21.8913 13.9355 21.8913 13.9355Z" fill="url(#paint1_linear_2287_19919)"/>
<path id="Vector_3" style="mix-blend-mode:multiply" opacity="0.5" fill-rule="evenodd" clip-rule="evenodd" d="M20.6157 14.1445L14.3444 15.1447C14.3444 15.1447 16.7728 17.8202 16.969 17.8202C17.059 17.8202 18.7924 17.3368 21.5315 16.795C24.7203 16.1699 23.3712 14.678 20.6076 14.1445H20.6157Z" fill="url(#paint2_linear_2287_19919)"/>
<path id="Vector_4" fill-rule="evenodd" clip-rule="evenodd" d="M12.0793 23.3456C12.0793 23.3456 12.9542 38.74 12.9951 39.2818C13.036 39.8235 13.1178 40.4736 13.1505 40.4903C13.1832 40.507 14.8512 40.8904 14.8512 40.8904C14.9656 40.4903 22.6924 23.304 22.6924 23.304L12.0712 23.3456H12.0793Z" fill="url(#paint3_linear_2287_19919)"/>
<path id="Vector_5" style="mix-blend-mode:multiply" opacity="0.5" fill-rule="evenodd" clip-rule="evenodd" d="M12.9955 39.2828C13.0364 39.8246 13.1181 40.4747 13.1508 40.4914C13.1835 40.5081 14.8515 40.8915 14.8515 40.8915C14.8761 40.8165 15.1459 40.1913 15.5792 39.2162C14.5245 40.058 13.5351 40.4914 12.9628 38.8911C12.9791 39.0995 12.9873 39.2412 12.9873 39.2828H12.9955Z" fill="url(#paint4_linear_2287_19919)"/>
<path id="Vector_6" style="mix-blend-mode:multiply" opacity="0.5" fill-rule="evenodd" clip-rule="evenodd" d="M20.8282 23.3132L12.0712 23.3466C12.0712 23.3466 12.3819 28.8725 12.6435 33.415C13.0851 37.8908 20.0187 30.1061 20.82 23.3132H20.8282Z" fill="url(#paint5_linear_2287_19919)"/>
<path id="Vector_7" fill-rule="evenodd" clip-rule="evenodd" d="M23.0933 1.56727C21.1228 0.983831 18.7516 0.483743 15.759 0.100342L0.329956 3.83433L4.01756 23.4961L8.20393 25.1714L23.0933 1.56727Z" fill="url(#paint6_linear_2287_19919)"/>
<path id="Vector_8" style="mix-blend-mode:multiply" opacity="0.5" fill-rule="evenodd" clip-rule="evenodd" d="M9.64331 5.95969C9.88861 5.90968 17.1412 4.1177 19.1035 3.40924C21.0577 2.70078 23.0609 1.59225 22.9874 1.64226C22.9138 1.69227 21.1804 1.57558 17.3946 2.6091C13.6089 3.64261 9.64331 5.95969 9.64331 5.95969Z" fill="url(#paint7_linear_2287_19919)"/>
<path id="Vector_9" style="mix-blend-mode:multiply" opacity="0.5" fill-rule="evenodd" clip-rule="evenodd" d="M15.7508 0.100342L0.329956 3.83433C0.329956 3.83433 14.091 0.508747 16.732 0.817135C19.373 1.12552 23.0933 1.56727 23.0933 1.56727C21.1228 0.983831 18.7516 0.483743 15.759 0.100342H15.7508Z" fill="url(#paint8_linear_2287_19919)"/>
<path id="Vector_10" style="mix-blend-mode:multiply" opacity="0.5" fill-rule="evenodd" clip-rule="evenodd" d="M6.79757 6.84309C6.79757 6.84309 6.05351 6.78475 5.31762 6.46803C3.71503 5.78457 1.24572 4.43433 0.329956 3.83423L4.01756 23.496L8.20393 25.1713L6.79757 6.84309Z" fill="url(#paint9_linear_2287_19919)"/>
<path id="Vector_11" style="mix-blend-mode:multiply" opacity="0.5" fill-rule="evenodd" clip-rule="evenodd" d="M7.1165 16.7119L6.22526 8.02699C6.22526 8.02699 1.2703 4.59306 1.12312 4.8431C0.975947 5.09314 3.40437 17.1119 3.6006 18.2705C3.79684 19.429 6.82214 20.5459 7.1165 16.7119Z" fill="url(#paint10_linear_2287_19919)"/>
<path id="Vector_12" fill-rule="evenodd" clip-rule="evenodd" d="M23.551 1.9927L23.085 1.56763C18.7678 3.49297 13.592 4.95156 7.3452 5.83504L6.83826 6.91023L8.19556 25.1801L8.63709 25.4052L16.5274 24.0466C16.5274 24.0466 14.8758 39.1909 14.8594 39.8244C14.8431 40.4495 14.8512 40.8996 14.8512 40.8996C14.8512 40.8996 15.0066 40.8495 15.0229 40.8162C20.5257 31.2312 26.4046 22.6047 32.9376 15.3867L32.815 15.17L20.8937 16.9953L23.5428 2.00104L23.551 1.9927Z" fill="url(#paint11_radial_2287_19919)"/>
<path id="Vector_13" style="mix-blend-mode:multiply" opacity="0.5" fill-rule="evenodd" clip-rule="evenodd" d="M32.9459 15.3785C32.9459 15.3785 20.951 18.8375 20.2069 18.304C19.839 18.0457 20.9346 14.0366 21.7686 10.0526C22.6353 5.92686 23.2486 1.83447 23.2486 1.83447L23.502 2.2012L20.8937 16.9788L32.7824 15.1618L32.9296 15.3785H32.9459Z" fill="url(#paint12_linear_2287_19919)"/>
<path id="Vector_14" style="mix-blend-mode:multiply" opacity="0.5" fill-rule="evenodd" clip-rule="evenodd" d="M32.9134 15.3287C32.8889 15.3954 32.8398 15.4704 32.7662 15.5704V15.5871C30.0353 18.6126 27.4188 21.8882 24.9004 25.3805C25.2847 24.7137 26.4621 22.78 27.7704 20.9214C29.4874 18.4876 30.3378 17.3791 30.4931 16.6289C30.6485 15.8871 21.3845 16.954 21.3845 16.954C21.3845 16.954 31.9567 15.2037 32.8561 15.187C32.9134 15.187 32.9461 15.187 32.9624 15.187C32.987 15.187 32.9624 15.2454 32.9216 15.312L32.9134 15.3287Z" fill="url(#paint13_linear_2287_19919)"/>
<path id="Vector_15" style="mix-blend-mode:multiply" opacity="0.5" fill-rule="evenodd" clip-rule="evenodd" d="M23.5512 1.9927L23.0852 1.56763C22.1858 1.9677 21.2455 2.34276 20.2725 2.70116C23.7393 3.0929 21.7606 10.6776 21.2536 14.9783L23.5512 2.00104V1.9927Z" fill="url(#paint14_linear_2287_19919)"/>
<path id="Vector_16" style="mix-blend-mode:multiply" opacity="0.5" fill-rule="evenodd" clip-rule="evenodd" d="M14.8598 40.8909C14.8598 40.8909 14.8598 40.4492 14.8598 39.8157C14.8761 39.1906 16.5278 24.0463 16.5278 24.0463L8.63745 25.3965C8.63745 25.3965 8.69469 25.3632 8.7601 25.3298C9.93752 24.7547 16.6504 21.8626 18.1958 22.0543C19.8311 22.2626 14.8516 40.8826 14.8516 40.8826L14.8598 40.8909Z" fill="url(#paint15_linear_2287_19919)"/>
<path id="Vector_17" fill-rule="evenodd" clip-rule="evenodd" d="M15.6118 32.573C15.2275 36.1403 14.8759 39.5242 14.8678 39.8159C14.8514 40.441 14.8596 40.8911 14.8596 40.8911C14.8596 40.8911 15.0149 40.8411 15.0313 40.8078C16.7811 37.7572 18.5717 34.8234 20.4114 31.9812C19.0214 33.6815 15.9062 39.2075 15.4238 39.1658C14.9414 39.1241 15.62 33.7732 15.62 32.573H15.6118Z" fill="white"/>
<path id="Vector_18" fill-rule="evenodd" clip-rule="evenodd" d="M8.2039 25.1714L8.64543 25.3965L10.1581 25.1381C7.43531 25.7632 8.0976 19.3704 7.45166 15.1697L8.19572 25.1714H8.2039Z" fill="white"/>
<path id="Vector_19" style="mix-blend-mode:screen" fill-rule="evenodd" clip-rule="evenodd" d="M32.9458 15.3786L32.8232 15.1619L20.9019 16.9872C20.9019 16.9872 26.6172 17.1622 32.9377 15.3786H32.9458Z" fill="url(#paint16_radial_2287_19919)"/>
<path id="Vector_20" style="mix-blend-mode:screen" fill-rule="evenodd" clip-rule="evenodd" d="M16.5358 24.0461C16.5358 24.0461 14.8841 39.1905 14.8678 39.8239C14.8514 40.449 14.8596 40.8991 14.8596 40.8991C14.8596 40.8991 15.0149 40.8491 15.0313 40.8158C16.8219 37.6985 16.5358 24.0545 16.5358 24.0545V24.0461Z" fill="url(#paint17_radial_2287_19919)"/>
<path id="Vector_21" style="mix-blend-mode:screen" fill-rule="evenodd" clip-rule="evenodd" d="M23.551 1.9927L23.085 1.56763C18.7678 3.49297 13.592 4.95156 7.3452 5.83504L6.83826 6.91023C13.175 5.33496 18.964 3.70134 23.551 2.00104V1.9927Z" fill="url(#paint18_radial_2287_19919)"/>
<path id="Vector_22" fill-rule="evenodd" clip-rule="evenodd" d="M7.35346 5.83521L4.45081 6.03524C5.12946 6.56033 5.90622 6.87706 6.84652 6.91039C7.89311 6.52699 7.84405 6.17693 7.35346 5.83521Z" fill="url(#paint19_linear_2287_19919)"/>
<g id="Group_2">
<path id="Vector_23" style="mix-blend-mode:screen" fill-rule="evenodd" clip-rule="evenodd" d="M7.95871 7.90045C7.06747 9.18401 8.10588 23.9533 9.29965 24.0283C10.4852 24.1033 17.3208 18.9524 19.2505 16.5353C21.1801 14.1099 23.7802 2.83289 22.3739 3.433C20.9593 4.04144 8.85812 6.61689 7.96688 7.90045H7.95871Z" fill="url(#paint20_radial_2287_19919)"/>
</g>
<g id="Group_3">
<path id="Vector_24" style="mix-blend-mode:screen" fill-rule="evenodd" clip-rule="evenodd" d="M17.6888 22.5135C17.5825 22.7303 15.4566 36.5243 15.4566 37.5079C15.4566 38.4914 15.3095 39.7833 15.5302 39.3999C15.6365 39.2165 18.6945 32.6987 22.5865 27.131C26.7811 21.1383 30.9756 17.2126 30.6077 16.8375C30.2397 16.4625 18.2775 21.305 17.6806 22.5135H17.6888Z" fill="url(#paint21_radial_2287_19919)"/>
</g>
<g id="Group_4">
<path id="Vector_25" style="mix-blend-mode:screen" fill-rule="evenodd" clip-rule="evenodd" d="M19.496 3.17461C17.8607 3.88307 7.16588 6.50853 6.96964 6.55854C6.94511 6.55854 7.03505 6.85026 6.84699 6.90027C6.84699 6.90027 6.0457 6.78358 5.31799 6.46686C3.69904 5.76673 1.25427 4.4415 0.330322 3.83306C0.330322 3.83306 8.94018 1.66601 13.6498 1.81604C18.3513 1.96607 21.1313 2.47449 19.4879 3.17461H19.496Z" fill="url(#paint22_radial_2287_19919)"/>
</g>
<path id="Vector_26" fill-rule="evenodd" clip-rule="evenodd" d="M5.146 6.46792C5.146 6.46792 6.6423 7.22638 6.94483 7.17637C7.24736 7.1347 11.6708 5.64277 11.9325 5.54275C12.186 5.4344 7.45995 6.74296 6.96118 6.7263C6.46241 6.70963 5.15417 6.46792 5.15417 6.46792H5.146Z" fill="white"/>
<g id="Group_5">
<path id="Vector_27" style="mix-blend-mode:screen" fill-rule="evenodd" clip-rule="evenodd" d="M4.01713 23.4948C4.01713 23.4948 3.44477 20.4526 5.08825 20.611C6.73173 20.7693 8.72679 25.3868 8.64503 25.3951C8.56326 25.4118 4.01713 23.4948 4.01713 23.4948Z" fill="url(#paint23_radial_2287_19919)"/>
</g>
</g>
</g>
</g>
<defs>
<linearGradient id="paint0_linear_2287_19919" x1="30.6156" y1="5.37632" x2="20.4572" y2="18.9596" gradientUnits="userSpaceOnUse">
<stop offset="0.29" stop-color="#FA9300"/>
<stop offset="0.63" stop-color="#F66A00"/>
<stop offset="1" stop-color="#F63F00"/>
</linearGradient>
<linearGradient id="paint1_linear_2287_19919" x1="14.9903" y1="16.6277" x2="29.0432" y2="14.3634" gradientUnits="userSpaceOnUse">
<stop stop-color="#DE376D"/>
<stop offset="0.99" stop-color="white"/>
</linearGradient>
<linearGradient id="paint2_linear_2287_19919" x1="15.1947" y1="16.6616" x2="24.5688" y2="14.3948" gradientUnits="userSpaceOnUse">
<stop stop-color="#DE376D"/>
<stop offset="0.99" stop-color="white"/>
</linearGradient>
<linearGradient id="paint3_linear_2287_19919" x1="14.7776" y1="43.2491" x2="16.7643" y2="28.6315" gradientUnits="userSpaceOnUse">
<stop offset="0.29" stop-color="#FA9300"/>
<stop offset="0.63" stop-color="#F66A00"/>
<stop offset="1" stop-color="#F63F00"/>
</linearGradient>
<linearGradient id="paint4_linear_2287_19919" x1="14.1974" y1="41.8083" x2="14.4268" y2="34.1989" gradientUnits="userSpaceOnUse">
<stop stop-color="#B82774"/>
<stop offset="0.99" stop-color="white"/>
</linearGradient>
<linearGradient id="paint5_linear_2287_19919" x1="16.0858" y1="26.7805" x2="14.6931" y2="39.377" gradientUnits="userSpaceOnUse">
<stop stop-color="#B82774"/>
<stop offset="0.99" stop-color="white"/>
</linearGradient>
<linearGradient id="paint6_linear_2287_19919" x1="11.9161" y1="-11.9268" x2="11.2194" y2="35.4562" gradientUnits="userSpaceOnUse">
<stop offset="0.29" stop-color="#FA9300"/>
<stop offset="0.63" stop-color="#F66A00"/>
<stop offset="1" stop-color="#F63F00"/>
</linearGradient>
<linearGradient id="paint7_linear_2287_19919" x1="17.9997" y1="5.99303" x2="14.5505" y2="1.67314" gradientUnits="userSpaceOnUse">
<stop stop-color="#DE376D"/>
<stop offset="0.99" stop-color="white"/>
</linearGradient>
<linearGradient id="paint8_linear_2287_19919" x1="11.7771" y1="-1.84167" x2="11.6666" y2="5.60958" gradientUnits="userSpaceOnUse">
<stop stop-color="#DE376D"/>
<stop offset="0.99" stop-color="white"/>
</linearGradient>
<linearGradient id="paint9_linear_2287_19919" x1="5.30127" y1="10.3604" x2="0.622444" y2="28.4541" gradientUnits="userSpaceOnUse">
<stop stop-color="#DE376D"/>
<stop offset="0.99" stop-color="white"/>
</linearGradient>
<linearGradient id="paint10_linear_2287_19919" x1="4.50819" y1="9.3689" x2="1.22791" y2="22.0745" gradientUnits="userSpaceOnUse">
<stop stop-color="#DE376D"/>
<stop offset="0.99" stop-color="white"/>
</linearGradient>
<radialGradient id="paint11_radial_2287_19919" cx="0" cy="0" r="1" gradientUnits="userSpaceOnUse" gradientTransform="translate(20.5094 30.6311) scale(31.4877 32.0973)">
<stop stop-color="#FCF800"/>
<stop offset="1" stop-color="#FC9700"/>
</radialGradient>
<linearGradient id="paint12_linear_2287_19919" x1="30.0187" y1="5.1934" x2="21.4354" y2="19.9125" gradientUnits="userSpaceOnUse">
<stop stop-color="#DE376D"/>
<stop offset="0.99" stop-color="white"/>
</linearGradient>
<linearGradient id="paint13_linear_2287_19919" x1="35.8079" y1="13.4617" x2="23.3217" y2="20.769" gradientUnits="userSpaceOnUse">
<stop stop-color="#B82774"/>
<stop offset="0.99" stop-color="white"/>
</linearGradient>
<linearGradient id="paint14_linear_2287_19919" x1="20.2725" y1="8.26881" x2="23.5512" y2="8.26881" gradientUnits="userSpaceOnUse">
<stop stop-color="#DE376D"/>
<stop offset="0.99" stop-color="white"/>
</linearGradient>
<linearGradient id="paint15_linear_2287_19919" x1="11.1885" y1="33.6146" x2="21.6726" y2="25.2433" gradientUnits="userSpaceOnUse">
<stop stop-color="#DE376D"/>
<stop offset="0.99" stop-color="white"/>
</linearGradient>
<radialGradient id="paint16_radial_2287_19919" cx="0" cy="0" r="1" gradientUnits="userSpaceOnUse" gradientTransform="translate(23.3466 17.3956) scale(20.8828 21.2871)">
<stop stop-color="#FFF261"/>
<stop offset="0.11" stop-color="#FAED5F"/>
<stop offset="0.23" stop-color="#ECE05A"/>
<stop offset="0.36" stop-color="#D6CB51"/>
<stop offset="0.5" stop-color="#B6AD45"/>
<stop offset="0.64" stop-color="#8E8636"/>
<stop offset="0.78" stop-color="#5C5723"/>
<stop offset="0.92" stop-color="#22210D"/>
<stop offset="1"/>
</radialGradient>
<radialGradient id="paint17_radial_2287_19919" cx="0" cy="0" r="1" gradientUnits="userSpaceOnUse" gradientTransform="translate(16.6748 35.6899) scale(20.1387 20.5286)">
<stop stop-color="#FFF261"/>
<stop offset="0.11" stop-color="#FAED5F"/>
<stop offset="0.23" stop-color="#ECE05A"/>
<stop offset="0.36" stop-color="#D6CB51"/>
<stop offset="0.5" stop-color="#B6AD45"/>
<stop offset="0.64" stop-color="#8E8636"/>
<stop offset="0.78" stop-color="#5C5723"/>
<stop offset="0.92" stop-color="#22210D"/>
<stop offset="1"/>
</radialGradient>
<radialGradient id="paint18_radial_2287_19919" cx="0" cy="0" r="1" gradientUnits="userSpaceOnUse" gradientTransform="translate(15.5953 5.50999) scale(15.8951 16.2029)">
<stop stop-color="#FFF261"/>
<stop offset="0.11" stop-color="#FAED5F"/>
<stop offset="0.23" stop-color="#ECE05A"/>
<stop offset="0.36" stop-color="#D6CB51"/>
<stop offset="0.5" stop-color="#B6AD45"/>
<stop offset="0.64" stop-color="#8E8636"/>
<stop offset="0.78" stop-color="#5C5723"/>
<stop offset="0.92" stop-color="#22210D"/>
<stop offset="1"/>
</radialGradient>
<linearGradient id="paint19_linear_2287_19919" x1="4.44263" y1="6.36863" x2="7.6887" y2="6.36863" gradientUnits="userSpaceOnUse">
<stop stop-color="#FFDE00"/>
<stop offset="1" stop-color="#FFE834"/>
</linearGradient>
<radialGradient id="paint20_radial_2287_19919" cx="0" cy="0" r="1" gradientUnits="userSpaceOnUse" gradientTransform="translate(7.65618 28.1874) scale(24.3741 24.846)">
<stop stop-color="#FFF261"/>
<stop offset="0.11" stop-color="#FAED5F"/>
<stop offset="0.23" stop-color="#ECE05A"/>
<stop offset="0.36" stop-color="#D6CB51"/>
<stop offset="0.5" stop-color="#B6AD45"/>
<stop offset="0.64" stop-color="#8E8636"/>
<stop offset="0.78" stop-color="#5C5723"/>
<stop offset="0.92" stop-color="#22210D"/>
<stop offset="1"/>
</radialGradient>
<radialGradient id="paint21_radial_2287_19919" cx="0" cy="0" r="1" gradientUnits="userSpaceOnUse" gradientTransform="translate(15.9063 40.4584) scale(12.0522 12.2855)">
<stop stop-color="#FFF261"/>
<stop offset="0.11" stop-color="#FAED5F"/>
<stop offset="0.23" stop-color="#ECE05A"/>
<stop offset="0.36" stop-color="#D6CB51"/>
<stop offset="0.5" stop-color="#B6AD45"/>
<stop offset="0.64" stop-color="#8E8636"/>
<stop offset="0.78" stop-color="#5C5723"/>
<stop offset="0.92" stop-color="#22210D"/>
<stop offset="1"/>
</radialGradient>
<radialGradient id="paint22_radial_2287_19919" cx="0" cy="0" r="1" gradientUnits="userSpaceOnUse" gradientTransform="translate(7.50929 10.6926) scale(14.0718 14.3442)">
<stop stop-color="#FFF261"/>
<stop offset="0.11" stop-color="#FAED5F"/>
<stop offset="0.23" stop-color="#ECE05A"/>
<stop offset="0.36" stop-color="#D6CB51"/>
<stop offset="0.5" stop-color="#B6AD45"/>
<stop offset="0.64" stop-color="#8E8636"/>
<stop offset="0.78" stop-color="#5C5723"/>
<stop offset="0.92" stop-color="#22210D"/>
<stop offset="1"/>
</radialGradient>
<radialGradient id="paint23_radial_2287_19919" cx="0" cy="0" r="1" gradientUnits="userSpaceOnUse" gradientTransform="translate(3.83725 27.8122) scale(6.94185 7.07625)">
<stop stop-color="#FFF261"/>
<stop offset="0.11" stop-color="#FAED5F"/>
<stop offset="0.23" stop-color="#ECE05A"/>
<stop offset="0.36" stop-color="#D6CB51"/>
<stop offset="0.5" stop-color="#B6AD45"/>
<stop offset="0.64" stop-color="#8E8636"/>
<stop offset="0.78" stop-color="#5C5723"/>
<stop offset="0.92" stop-color="#22210D"/>
<stop offset="1"/>
</radialGradient>
</defs>
</svg>
