<?xml version="1.0" standalone="no"?><!DOCTYPE svg PUBLIC "-//W3C//DTD SVG 1.1//EN" "http://www.w3.org/Graphics/SVG/1.1/DTD/svg11.dtd"><svg t="1696518116820" class="icon" viewBox="0 0 1024 1024" version="1.1" xmlns="http://www.w3.org/2000/svg" p-id="4242" xmlns:xlink="http://www.w3.org/1999/xlink" width="200" height="200"><path d="M85.333333 640c0-221.866667 168.533333-403.2 384-424.533333V149.333333h-64c-23.466667 0-42.666667-19.2-42.666666-42.666666s19.2-42.666667 42.666666-42.666667h213.333334c23.466667 0 42.666667 19.2 42.666666 42.666667s-19.2 42.666667-42.666666 42.666666h-64v66.133334c215.466667 21.333333 384 202.666667 384 424.533333v128c0 23.466667-19.2 42.666667-42.666667 42.666667H128c-23.466667 0-42.666667-19.2-42.666667-42.666667v-128z m426.666667-341.333333c-187.733333 0-341.333333 153.6-341.333333 341.333333v85.333333h682.666666v-85.333333c0-187.733333-153.6-341.333333-341.333333-341.333333zM42.666667 917.333333c0 23.466667 19.2 42.666667 42.666666 42.666667h853.333334c23.466667 0 42.666667-19.2 42.666666-42.666667s-19.2-42.666667-42.666666-42.666666H85.333333c-23.466667 0-42.666667 19.2-42.666666 42.666666" fill="#1296db" p-id="4243"></path><path d="M578.133333 460.8c53.333333 19.2 96 61.866667 115.2 115.2 6.4 17.066667 23.466667 27.733333 40.533334 27.733333 4.266667 0 10.666667 0 14.933333-2.133333 21.333333-8.533333 34.133333-32 25.6-55.466667-27.733333-76.8-89.6-138.666667-166.4-166.4-21.333333-8.533333-46.933333 4.266667-55.466667 25.6-8.533333 21.333333 2.133333 46.933333 25.6 55.466667" fill="#1296db" p-id="4244"></path></svg>