<svg width="24" height="29" viewBox="0 0 24 29" fill="none" xmlns="http://www.w3.org/2000/svg">
<path fill-rule="evenodd" clip-rule="evenodd" d="M15.5417 0.457742C14.9683 -0.140656 14.0183 -0.160894 13.4199 0.412539L8.10221 5.50842C7.50381 6.08185 7.48357 7.03181 8.057 7.6302C8.63044 8.2286 9.58039 8.24884 10.1788 7.67541L15.4965 2.57953C16.0949 2.0061 16.1152 1.05614 15.5417 0.457742ZM21.5806 1.20807C21.0072 0.60967 20.0572 0.589432 19.4588 1.16286L4.87644 15.1369C4.27805 15.7103 4.25781 16.6603 4.83124 17.2587C5.40467 17.8571 6.35463 17.8773 6.95303 17.3039L21.5354 3.32986C22.1338 2.75642 22.1541 1.80647 21.5806 1.20807ZM17.5806 11.7128C17.0072 11.1144 16.0572 11.0941 15.4588 11.6676L0.876444 25.6416C0.278046 26.215 0.257807 27.165 0.83124 27.7634C1.40467 28.3618 2.35463 28.382 2.95303 27.8086L17.5354 13.8346C18.1338 13.2611 18.1541 12.3112 17.5806 11.7128ZM21.4619 13.1682C22.0603 12.5948 23.0102 12.615 23.5837 13.2134C24.1571 13.8118 24.1369 14.7618 23.5385 15.3352L18.2207 20.4311C17.6223 21.0045 16.6724 20.9843 16.0989 20.3859C15.5255 19.7875 15.5457 18.8375 16.1441 18.2641L21.4619 13.1682Z" fill="url(#paint0_linear_1797_2079)"/>
<defs>
<linearGradient id="paint0_linear_1797_2079" x1="12.2074" y1="-0.00463867" x2="12.2074" y2="28.2257" gradientUnits="userSpaceOnUse">
<stop stop-color="#FFAFAF"/>
<stop offset="0.495" stop-color="#2AD5FA"/>
<stop offset="1" stop-color="#8951FF"/>
</linearGradient>
</defs>
</svg>
