    <svg width="29" height="24" viewBox="0 0 29 24" fill="none" xmlns="http://www.w3.org/2000/svg">
<g id="Group">
<g id="_&#229;&#156;&#150;&#229;&#177;&#164;_2">
<g id="_0">
<path id="Vector" fill-rule="evenodd" clip-rule="evenodd" d="M21.4503 0C17.3151 0 14.3995 5.66739 14.33 5.66739C14.2604 5.66739 11.3449 0 7.20424 0C3.06362 0 0.329956 4.12959 0.329956 7.7869C0.329956 11.4442 1.76901 15.0785 5.65284 17.8891C9.53133 20.694 14.3246 24 14.3246 24C14.3246 24 19.1179 20.694 22.9964 17.8891C26.8802 15.0785 28.3193 11.4442 28.3193 7.7869C28.3193 4.12959 25.5963 0 21.4503 0Z" fill="url(#paint0_radial_2287_19957)"/>
<path id="Vector_2" style="mix-blend-mode:screen" fill-rule="evenodd" clip-rule="evenodd" d="M21.4503 0C17.3151 0 14.3995 5.66739 14.33 5.66739C14.2604 5.66739 11.3449 0 7.20424 0C3.06362 0 0.329956 4.12959 0.329956 7.7869C0.329956 11.4442 1.76901 15.0785 5.65284 17.8891C9.53133 20.694 14.3246 24 14.3246 24C14.3246 24 19.1179 20.694 22.9964 17.8891C26.8802 15.0785 28.3193 11.4442 28.3193 7.7869C28.3193 4.12959 25.5963 0 21.4503 0Z" fill="url(#paint1_radial_2287_19957)"/>
<path id="Vector_3" style="mix-blend-mode:screen" opacity="0.75" fill-rule="evenodd" clip-rule="evenodd" d="M15.6348 19.012C10.0765 20.3943 2.18049 15.2683 0.34021 8.12646C0.425804 11.6686 1.8916 15.1704 5.65775 17.8946C9.53623 20.6995 14.3295 24.0055 14.3295 24.0055C14.3295 24.0055 19.1228 20.6995 23.0013 17.8946C26.2111 15.5736 27.7517 12.688 28.1904 9.69306C24.6811 14.8248 20.6742 17.7679 15.6348 19.0178V19.012Z" fill="url(#paint2_radial_2287_19957)"/>
<path id="Vector_4" style="mix-blend-mode:multiply" opacity="0.8" fill-rule="evenodd" clip-rule="evenodd" d="M14.3296 5.66739C14.2601 5.66739 11.3445 0 7.2039 0C6.17142 0 5.21919 0.259179 4.38464 0.702664C6.83478 -0.328294 9.28491 0.702664 11.3445 2.49388C13.2008 4.11231 14.3457 5.66163 14.3296 5.66163V5.66739Z" fill="url(#paint3_linear_2287_19957)"/>
<path id="Vector_5" style="mix-blend-mode:multiply" opacity="0.8" fill-rule="evenodd" clip-rule="evenodd" d="M14.8917 21.3856C14.2711 21.3511 9.82556 20.0955 6.09686 16.7319C2.93523 13.8809 1.1217 10.3964 0.329956 7.78735C0.329956 11.4447 1.76901 15.0789 5.65284 17.8896C9.53133 20.6945 14.3246 24.0005 14.3246 24.0005C14.3246 24.0005 19.1179 20.6945 22.9964 17.8896C25.7086 15.9313 27.2279 13.5642 27.8966 11.0703C25.9868 17.1754 15.5015 21.4202 14.881 21.3856H14.8917Z" fill="url(#paint4_linear_2287_19957)"/>
<path id="Vector_6" fill-rule="evenodd" clip-rule="evenodd" d="M14.4365 22.779C13.8159 22.7445 11.0662 21.4543 5.65771 17.8892C9.5362 20.6941 14.3295 24 14.3295 24C14.3295 24 19.1228 20.6941 23.0012 17.8892C16.9615 22.013 15.0517 22.8136 14.4311 22.779H14.4365Z" fill="url(#paint5_linear_2287_19957)"/>
<path id="Vector_7" style="mix-blend-mode:multiply" opacity="0.8" fill-rule="evenodd" clip-rule="evenodd" d="M24.7564 0.990641C22.8092 -0.0230381 18.7434 -0.87545 15.4801 6.95752C15.4588 7.0036 15.3464 7.33765 15.2715 7.37797C15.1966 7.42405 15.1271 7.22246 15.1057 7.15911C14.8168 6.34701 14.3353 5.66739 14.3353 5.66739C14.4049 5.66739 17.3204 0 21.4557 0C22.6968 0 23.8095 0.37437 24.7618 0.990641H24.7564Z" fill="url(#paint6_linear_2287_19957)"/>
<path id="Vector_8" style="mix-blend-mode:multiply" opacity="0.8" fill-rule="evenodd" clip-rule="evenodd" d="M14.3297 5.66758C14.3297 5.66758 14.8112 6.3472 15.1001 7.1593C15.1161 7.21113 15.1696 7.35512 15.2338 7.3724C15.4478 6.15138 14.8112 4.89004 14.6079 5.21833C14.4367 5.49479 14.3404 5.66182 14.3297 5.66182V5.66758Z" fill="url(#paint7_linear_2287_19957)"/>
<path id="Vector_9" style="mix-blend-mode:screen" opacity="0.75" fill-rule="evenodd" clip-rule="evenodd" d="M1.34615 5.23032C1.73667 3.0417 4.07446 -0.0914907 7.32704 0.467185C10.5743 1.02586 14.6186 5.41463 15.3087 8.57662C15.6725 10.2296 12.8211 11.704 10.0233 11.1051C7.22005 10.5118 0.656044 9.13529 1.34615 5.23032Z" fill="url(#paint8_radial_2287_19957)"/>
<path id="Vector_10" style="mix-blend-mode:screen" opacity="0.75" fill-rule="evenodd" clip-rule="evenodd" d="M2.62453 5.08C2.13771 4.2967 3.44837 1.10592 6.07504 1.05408C8.70172 1.00224 12.7353 3.30606 13.4147 7.02096C14.0942 10.7359 12.0559 5.66171 7.48735 5.55804C2.91876 5.45437 3.11135 5.87481 2.62988 5.08576L2.62453 5.08Z" fill="url(#paint9_radial_2287_19957)"/>
<path id="Vector_11" style="mix-blend-mode:screen" opacity="0.75" fill-rule="evenodd" clip-rule="evenodd" d="M15.9932 6.03576C16.3783 3.84713 18.7857 0.322292 22.0382 0.880968C25.2855 1.43964 27.9175 4.08327 27.9175 8.2647C27.9175 9.96376 26.1147 12.1409 23.3168 11.5419C20.519 10.9486 15.3031 9.93496 15.9932 6.03V6.03576Z" fill="url(#paint10_radial_2287_19957)"/>
<path id="Vector_12" style="mix-blend-mode:screen" opacity="0.75" fill-rule="evenodd" clip-rule="evenodd" d="M15.2336 7.37263C15.2336 7.37263 16.9134 1.36543 20.1179 0.99682C23.3276 0.62821 26.2913 3.19696 26.7782 4.23944C27.265 5.28768 23.4721 3.40431 19.7327 4.86723C15.9933 6.33015 15.2336 7.37263 15.2336 7.37263Z" fill="url(#paint11_radial_2287_19957)"/>
<path id="Vector_13" style="mix-blend-mode:screen" opacity="0.75" fill-rule="evenodd" clip-rule="evenodd" d="M1.83792 11.1096C1.35111 11.3688 3.6354 15.1355 8.01141 18.1708C12.3874 21.2061 13.2594 21.5171 13.6981 21.2061C14.1367 20.8893 10.0068 17.0707 8.01141 15.1355C6.02134 13.2003 2.32474 10.8447 1.83792 11.1096Z" fill="url(#paint12_linear_2287_19957)"/>
<path id="Vector_14" fill-rule="evenodd" clip-rule="evenodd" d="M8.70214 1.46943C11.5535 2.35639 12.2757 4.35495 12.0296 4.45863C11.9226 4.5047 9.83091 2.83444 8.07088 2.35639C6.31085 1.87835 5.06974 2.5407 4.936 2.19513C4.8076 1.8438 5.71704 0.547899 8.69679 1.47518L8.70214 1.46943Z" fill="white"/>
<path id="Vector_15" fill-rule="evenodd" clip-rule="evenodd" d="M17.2023 3.47854C17.0954 3.33456 17.8871 1.85435 19.3796 1.33024C20.4442 0.955866 20.471 1.18625 19.4064 2.01562C17.9513 3.15025 17.3093 3.47278 17.2023 3.47278V3.47854Z" fill="white"/>
<path id="Vector_16" fill-rule="evenodd" clip-rule="evenodd" d="M12.2859 4.72289C12.0666 4.77472 12.5427 5.74809 12.8262 5.60986C13.1097 5.47163 12.5908 4.65377 12.2859 4.72289Z" fill="white"/>
<path id="Vector_17" style="mix-blend-mode:multiply" opacity="0.8" fill-rule="evenodd" clip-rule="evenodd" d="M28.33 7.78745C28.33 11.4448 26.8963 15.0848 23.0071 17.8897C19.1286 20.6946 14.3353 24.0006 14.3353 24.0006C14.3353 24.0006 14.6349 15.4534 19.5566 13.2936C24.4836 11.128 26.7518 10.2929 27.137 7.22302C27.4954 4.3778 24.7992 1.475 22.9054 0.17334C26.2276 0.996954 28.33 4.57939 28.33 7.78745Z" fill="url(#paint13_linear_2287_19957)"/>
</g>
</g>
</g>
<defs>
<radialGradient id="paint0_radial_2287_19957" cx="0" cy="0" r="1" gradientUnits="userSpaceOnUse" gradientTransform="translate(11.1309 8.06335) scale(16.6588 17.9352)">
<stop stop-color="#FA3200"/>
<stop offset="0.72" stop-color="#D90000"/>
<stop offset="1" stop-color="#B50000"/>
</radialGradient>
<radialGradient id="paint1_radial_2287_19957" cx="0" cy="0" r="1" gradientUnits="userSpaceOnUse" gradientTransform="translate(14.33 22.6062) scale(7.82652 8.42621)">
<stop stop-color="#E50031"/>
<stop offset="1"/>
</radialGradient>
<radialGradient id="paint2_radial_2287_19957" cx="0" cy="0" r="1" gradientUnits="userSpaceOnUse" gradientTransform="translate(12.5588 25.6412) scale(12.4754 13.4312)">
<stop stop-color="#FF3F36"/>
<stop offset="0.13" stop-color="#CD322B"/>
<stop offset="0.31" stop-color="#8F231E"/>
<stop offset="0.48" stop-color="#5C1613"/>
<stop offset="0.64" stop-color="#340C0B"/>
<stop offset="0.78" stop-color="#170505"/>
<stop offset="0.91" stop-color="#060101"/>
<stop offset="1"/>
</radialGradient>
<linearGradient id="paint3_linear_2287_19957" x1="9.4026" y1="-1.41685" x2="9.31579" y2="5.69604" gradientUnits="userSpaceOnUse">
<stop stop-color="#BE2F55"/>
<stop offset="1" stop-color="white"/>
</linearGradient>
<linearGradient id="paint4_linear_2287_19957" x1="13.6452" y1="23.3208" x2="14.3209" y2="6.23018" gradientUnits="userSpaceOnUse">
<stop stop-color="#BE2F55"/>
<stop offset="1" stop-color="white"/>
</linearGradient>
<linearGradient id="paint5_linear_2287_19957" x1="14.3616" y1="24.4723" x2="14.3368" y2="20.0144" gradientUnits="userSpaceOnUse">
<stop stop-color="#DE0086"/>
<stop offset="1" stop-color="#FF003B"/>
</linearGradient>
<linearGradient id="paint6_linear_2287_19957" x1="14.1267" y1="3.28294" x2="17.4844" y2="3.55651" gradientUnits="userSpaceOnUse">
<stop stop-color="#BE2F55"/>
<stop offset="1" stop-color="white"/>
</linearGradient>
<linearGradient id="paint7_linear_2287_19957" x1="14.5437" y1="6.41632" x2="15.5302" y2="6.11927" gradientUnits="userSpaceOnUse">
<stop stop-color="#BE2F55"/>
<stop offset="1" stop-color="white"/>
</linearGradient>
<radialGradient id="paint8_radial_2287_19957" cx="0" cy="0" r="1" gradientUnits="userSpaceOnUse" gradientTransform="translate(8.21508 3.45639) scale(12.9729 13.9669)">
<stop stop-color="#FF3F36"/>
<stop offset="0.13" stop-color="#CD322B"/>
<stop offset="0.31" stop-color="#8F231E"/>
<stop offset="0.48" stop-color="#5C1613"/>
<stop offset="0.64" stop-color="#340C0B"/>
<stop offset="0.78" stop-color="#170505"/>
<stop offset="0.91" stop-color="#060101"/>
<stop offset="1"/>
</radialGradient>
<radialGradient id="paint9_radial_2287_19957" cx="0" cy="0" r="1" gradientUnits="userSpaceOnUse" gradientTransform="translate(5.05861 2.82802) scale(8.25449 8.88697)">
<stop stop-color="#FF3F36"/>
<stop offset="0.13" stop-color="#CD322B"/>
<stop offset="0.31" stop-color="#8F231E"/>
<stop offset="0.48" stop-color="#5C1613"/>
<stop offset="0.64" stop-color="#340C0B"/>
<stop offset="0.78" stop-color="#170505"/>
<stop offset="0.91" stop-color="#060101"/>
<stop offset="1"/>
</radialGradient>
<radialGradient id="paint10_radial_2287_19957" cx="0" cy="0" r="1" gradientUnits="userSpaceOnUse" gradientTransform="translate(18.3256 1.88889) scale(14.0802 15.1591)">
<stop stop-color="#FF3F36"/>
<stop offset="0.13" stop-color="#CD322B"/>
<stop offset="0.31" stop-color="#8F231E"/>
<stop offset="0.48" stop-color="#5C1613"/>
<stop offset="0.64" stop-color="#340C0B"/>
<stop offset="0.78" stop-color="#170505"/>
<stop offset="0.91" stop-color="#060101"/>
<stop offset="1"/>
</radialGradient>
<radialGradient id="paint11_radial_2287_19957" cx="0" cy="0" r="1" gradientUnits="userSpaceOnUse" gradientTransform="translate(17.106 1.26176) scale(6.72449 7.23974)">
<stop stop-color="#FF3F36"/>
<stop offset="0.13" stop-color="#CD322B"/>
<stop offset="0.31" stop-color="#8F231E"/>
<stop offset="0.48" stop-color="#5C1613"/>
<stop offset="0.64" stop-color="#340C0B"/>
<stop offset="0.78" stop-color="#170505"/>
<stop offset="0.91" stop-color="#060101"/>
<stop offset="1"/>
</radialGradient>
<linearGradient id="paint12_linear_2287_19957" x1="6.33697" y1="17.6928" x2="8.53155" y2="15.649" gradientUnits="userSpaceOnUse">
<stop stop-color="#FF3F36"/>
<stop offset="0.13" stop-color="#CD322B"/>
<stop offset="0.31" stop-color="#8F231E"/>
<stop offset="0.48" stop-color="#5C1613"/>
<stop offset="0.64" stop-color="#340C0B"/>
<stop offset="0.78" stop-color="#170505"/>
<stop offset="0.91" stop-color="#060101"/>
<stop offset="1"/>
</linearGradient>
<linearGradient id="paint13_linear_2287_19957" x1="29.8653" y1="17.7687" x2="18.6954" y2="12.8285" gradientUnits="userSpaceOnUse">
<stop stop-color="#BE2F55"/>
<stop offset="1" stop-color="white"/>
</linearGradient>
</defs>
</svg>
