<svg width="19" height="17" viewBox="0 0 19 17" fill="none" xmlns="http://www.w3.org/2000/svg">
<g id="&#232;&#179;&#135;&#231;&#148;&#162; 3 2" clip-path="url(#clip0_2287_19746)">
<g id="Group">
<g id="_&#229;&#156;&#150;&#229;&#177;&#164;_2">
<g id="_0">
<path id="Vector" style="mix-blend-mode:screen" fill-rule="evenodd" clip-rule="evenodd" d="M9.71155 0.508806C9.15207 0.542735 8.74096 0.434778 8.61731 0.582833C8.49676 0.733973 9.58791 0.709297 9.72082 0.696959C9.85374 0.684621 10.135 0.48413 9.70846 0.508806H9.71155Z" fill="url(#paint0_radial_2287_19746)"/>
<path id="Vector_2" fill-rule="evenodd" clip-rule="evenodd" d="M4.85243 10.7186C4.85243 10.7186 3.65619 15.9962 3.89729 16.1443C3.9622 16.1844 5.21408 16.1905 5.21408 16.1905L8.68226 13.5039C8.68226 13.5039 12.8397 16.1319 13.3189 16.1288C13.3343 16.1288 14.8149 16.1936 14.8149 16.1936L12.5152 10.6847C12.5152 10.6847 16.9478 6.94324 16.9045 6.68414C16.8643 6.42196 11.1211 5.87292 11.1211 5.87292L10.1351 -0.00610352C10.1351 -0.00610352 8.54007 0.0895155 8.49061 0.0895155C8.0795 0.0926 6.20941 5.90994 6.20941 5.90994C6.20941 5.90994 0.546577 6.40345 0.515666 6.79518C0.484756 7.18383 4.85243 10.7186 4.85243 10.7186Z" fill="url(#paint1_linear_2287_19746)"/>
<path id="Vector_3" style="mix-blend-mode:screen" fill-rule="evenodd" clip-rule="evenodd" d="M6.45985 5.98649C6.23729 6.00192 3.09677 6.38748 2.66093 6.47693C2.22509 6.56638 2.0489 6.64657 1.83253 6.68667C1.61616 6.72677 0.954667 6.67125 0.827934 6.67125C0.750657 6.67125 2.25291 6.38439 3.65626 6.1839C4.49703 6.06361 5.4398 6.00192 5.59745 5.98649C5.62217 5.98341 6.68241 5.96799 6.45985 5.98649Z" fill="url(#paint2_radial_2287_19746)"/>
<path id="Vector_4" style="mix-blend-mode:multiply" opacity="0.5" fill-rule="evenodd" clip-rule="evenodd" d="M10.1349 -0.00634766C10.1349 -0.00634766 10.07 -0.00326317 9.98964 0.00290579C9.18287 1.12566 8.28337 2.01399 7.28496 2.75118C6.72857 4.29034 6.20618 5.90969 6.20618 5.90969C6.60802 5.86034 7.09949 5.86959 7.63116 5.90352L11.0993 5.79248L10.1349 -0.00634766Z" fill="url(#paint3_linear_2287_19746)"/>
<path id="Vector_5" style="mix-blend-mode:multiply" opacity="0.5" fill-rule="evenodd" clip-rule="evenodd" d="M5.21712 16.1906C5.21712 16.1906 3.96524 16.1814 3.90033 16.1443C3.82305 16.095 3.88178 15.2128 4.08888 14.3739C4.52163 14.4232 4.93583 14.6175 5.48295 14.0562L7.31595 14.5651L5.21712 16.1937V16.1906Z" fill="url(#paint4_linear_2287_19746)"/>
<path id="Vector_6" style="mix-blend-mode:multiply" opacity="0.5" fill-rule="evenodd" clip-rule="evenodd" d="M5.21711 16.1903C5.21711 16.1903 3.96523 16.181 3.90031 16.144C3.87558 16.1286 3.86322 16.0299 3.86631 15.8726C3.87249 15.5395 5.50457 16.875 5.48294 14.0527L7.31594 14.5617L5.21711 16.1903Z" fill="url(#paint5_linear_2287_19746)"/>
<path id="Vector_7" style="mix-blend-mode:multiply" opacity="0.5" fill-rule="evenodd" clip-rule="evenodd" d="M13.5566 13.1833L14.8147 16.1938C14.8147 16.1938 13.3341 16.129 13.3186 16.129C12.8426 16.129 8.68201 13.5041 8.68201 13.5041L13.5535 13.1833H13.5566Z" fill="url(#paint6_linear_2287_19746)"/>
<path id="Vector_8" style="mix-blend-mode:multiply" opacity="0.5" fill-rule="evenodd" clip-rule="evenodd" d="M8.68201 13.5034C8.68201 13.5034 9.78552 14.2005 10.9168 14.8729C11.3465 14.4781 11.6525 13.9445 11.77 13.2998L8.68201 13.5034Z" fill="url(#paint7_linear_2287_19746)"/>
<path id="Vector_9" style="mix-blend-mode:multiply" opacity="0.5" fill-rule="evenodd" clip-rule="evenodd" d="M1.91901 6.78617L7.65293 7.5943L6.22486 10.7127C5.71174 10.6572 5.24808 10.651 4.85243 10.7189C4.85243 10.7189 0.484756 7.18407 0.515666 6.79542C1.13079 6.73373 1.91901 6.78617 1.91901 6.78617Z" fill="url(#paint8_linear_2287_19746)"/>
<path id="Vector_10" style="mix-blend-mode:multiply" opacity="0.5" fill-rule="evenodd" clip-rule="evenodd" d="M3.73644 7.04218L1.92198 6.78617C1.92198 6.78617 1.13376 6.73373 0.51864 6.79542C0.509367 6.89721 0.812291 7.22108 1.2574 7.64057C2.17236 7.65599 3.05022 7.63132 3.73953 7.04218H3.73644Z" fill="url(#paint9_linear_2287_19746)"/>
<path id="Vector_11" style="mix-blend-mode:multiply" opacity="0.5" fill-rule="evenodd" clip-rule="evenodd" d="M1.84495 7.04417L5.89115 10.5913C5.89115 10.5913 5.26676 10.5142 4.87419 10.5821C4.87419 10.5821 0.732167 7.30018 0.824898 7.038C0.91763 6.77582 1.84495 7.04726 1.84495 7.04726V7.04417Z" fill="url(#paint10_linear_2287_19746)"/>
<path id="Vector_12" fill-rule="evenodd" clip-rule="evenodd" d="M10.1377 -0.00634644C9.7266 -0.00326196 7.63395 5.90352 7.63395 5.90352C7.63395 5.90352 1.95566 6.39704 1.91857 6.78569C1.88148 7.17433 6.22442 10.7122 6.22442 10.7122C6.22442 10.7122 4.96018 16.0391 5.20437 16.1841C5.44547 16.3291 10.0295 13.5006 10.0295 13.5006C10.0295 13.5006 14.6074 16.3692 14.8423 16.1841C15.0772 15.996 13.8995 10.6814 13.8995 10.6814C13.8995 10.6814 18.3816 6.93683 18.3414 6.67773C18.3012 6.41863 12.5549 5.86651 12.5549 5.86651C12.5549 5.86651 10.5519 -0.00943093 10.1377 -0.00634644Z" fill="url(#paint11_radial_2287_19746)"/>
<path id="Vector_13" fill-rule="evenodd" clip-rule="evenodd" d="M6.22439 10.7122C6.22439 10.7122 4.96323 16.0361 5.20433 16.1841C5.44544 16.3291 10.0295 13.5006 10.0295 13.5006C10.0295 13.5006 14.6043 16.3692 14.8423 16.1841C15.0772 15.996 13.8995 10.6814 13.8995 10.6814C13.8995 10.6814 18.3784 6.93683 18.3414 6.67773C18.3043 6.41555 12.558 5.86343 12.558 5.86343C12.5518 5.86651 10.5488 -0.00943093 10.1377 -0.00634644C9.72347 -0.00326196 7.63391 5.90044 7.63391 5.90044C7.63391 5.90044 1.95563 6.39396 1.91853 6.78569C1.88453 7.17433 6.22129 10.7122 6.22129 10.7122H6.22439Z" fill="url(#paint12_radial_2287_19746)"/>
<path id="Vector_14" style="mix-blend-mode:multiply" opacity="0.5" fill-rule="evenodd" clip-rule="evenodd" d="M6.61774 10.8727C6.32409 11.0053 5.36586 15.2373 5.44314 15.5827C5.51732 15.9251 9.94991 13.5284 9.90972 13.3989C9.86954 13.2724 6.91448 10.7401 6.61774 10.8727Z" fill="url(#paint13_linear_2287_19746)"/>
<path id="Vector_15" style="mix-blend-mode:multiply" opacity="0.5" fill-rule="evenodd" clip-rule="evenodd" d="M18.3389 6.68081C18.3018 6.41863 12.5556 5.86651 12.5556 5.86651C12.5525 5.86651 10.5494 -0.00943093 10.1383 -0.00634644C10.3949 0.104695 12.4319 6.04541 12.4319 6.04541C12.4319 6.04541 18.0793 6.32301 18.1164 6.76101C18.1411 7.05404 13.6652 10.5518 13.6652 10.5518C13.6652 10.5518 14.948 15.8263 14.6111 15.9188C14.2742 16.0114 10.0302 13.5006 10.0302 13.5006C10.0302 13.5006 14.6049 16.3692 14.8429 16.1841C15.0779 15.996 13.9002 10.6814 13.9002 10.6814C13.9002 10.6814 18.3791 6.93683 18.342 6.67773L18.3389 6.68081Z" fill="url(#paint14_linear_2287_19746)"/>
<path id="Vector_16" fill-rule="evenodd" clip-rule="evenodd" d="M11.0867 1.85976C10.6725 0.826463 10.2923 -0.00634766 10.1377 -0.00634766C9.7946 -0.00326317 8.28616 4.09293 7.79468 5.4501C8.15015 4.91649 9.42367 0.379213 10.2057 0.518015C10.5086 0.474832 10.7868 1.1565 11.0836 1.85976H11.0867Z" fill="white"/>
<path id="Vector_17" style="mix-blend-mode:multiply" opacity="0.5" fill-rule="evenodd" clip-rule="evenodd" d="M7.41768 6.44975C7.41768 6.44975 2.5338 6.39114 2.43797 6.90934C2.34524 7.42136 6.08852 10.4318 6.23071 10.3146C6.37599 10.1974 7.93079 6.5392 7.41459 6.44975H7.41768Z" fill="url(#paint15_linear_2287_19746)"/>
<path id="Vector_18" fill-rule="evenodd" clip-rule="evenodd" d="M5.20495 16.1867C5.26677 16.2237 5.58824 16.0787 6.03954 15.8412C5.19258 16.2638 5.16167 15.7086 5.39659 14.5149C5.22349 15.4156 5.11531 16.1342 5.20495 16.1867Z" fill="white"/>
<path id="Vector_19" fill-rule="evenodd" clip-rule="evenodd" d="M6.24648 6.03711C4.55876 6.20984 1.94681 6.52446 1.92208 6.78972C1.89735 7.06424 4.08892 8.93961 5.34698 9.98833C1.40278 6.7157 2.04263 6.36715 6.24648 6.03711Z" fill="white"/>
<path id="Vector_20" style="mix-blend-mode:screen" fill-rule="evenodd" clip-rule="evenodd" d="M14.8431 16.1875C14.9976 16.0641 14.5494 13.763 14.2156 12.1653C13.1121 12.8069 11.8386 13.1955 10.6825 13.908C11.9591 14.6946 14.6638 16.3293 14.8431 16.1875Z" fill="url(#paint16_radial_2287_19746)"/>
<path id="Vector_21" style="mix-blend-mode:screen" fill-rule="evenodd" clip-rule="evenodd" d="M12.5456 5.84183C12.4096 5.4501 10.5333 -0.00943083 10.1377 -0.00634635C9.72347 -0.000177383 7.63391 5.90044 7.63391 5.90044C7.63391 5.90044 1.95563 6.39396 1.91853 6.78569C1.88453 7.17433 6.22129 10.7122 6.22129 10.7122C6.22129 10.7122 4.96014 16.0361 5.20124 16.1841C5.26306 16.2211 11.6708 11.2181 12.5425 5.83875L12.5456 5.84183Z" fill="url(#paint17_radial_2287_19746)"/>
<g id="Vector_22" style="mix-blend-mode:soft-light" opacity="0.4">
<path fill-rule="evenodd" clip-rule="evenodd" d="M8.40135 0.31733C8.40135 0.31733 6.3767 5.59488 6.43852 5.61647C6.50034 5.63806 7.47403 5.73368 7.49257 5.67199C7.51112 5.6103 9.60686 0.261809 9.28848 0.264894C8.9701 0.267978 8.40135 0.320415 8.40135 0.320415V0.31733Z" fill="white"/>
</g>
<path id="Vector_23" style="mix-blend-mode:screen" d="M6.22491 10.7117C6.194 10.7333 5.69325 13.3952 5.48924 14.265C5.28832 15.1225 5.17395 16.1496 5.17395 16.1496C5.17395 16.1496 5.26977 15.0423 5.4336 14.191C5.59743 13.3273 6.228 10.7117 6.228 10.7117H6.22491Z" fill="url(#paint18_radial_2287_19746)"/>
<g id="Vector_24" style="mix-blend-mode:screen">
<path fill-rule="evenodd" clip-rule="evenodd" d="M2.27454 6.60004C2.50327 6.55994 4.23736 6.32244 4.89576 6.23915C5.55415 6.15587 6.37947 6.04175 6.37947 6.04175C6.37947 6.04175 4.72575 6.16204 3.75206 6.32552C2.78147 6.489 2.27454 6.60004 2.27454 6.60004Z" fill="white"/>
</g>
<path id="Vector_25" style="mix-blend-mode:screen" fill-rule="evenodd" clip-rule="evenodd" d="M11.5349 15.1699C11.5349 15.1699 13.1886 16.0706 13.2814 16.0953C13.3741 16.123 14.2149 16.123 14.354 16.123C14.4931 16.123 12.385 15.0311 12.2613 14.9849C12.1377 14.9355 11.5349 15.1699 11.5349 15.1699Z" fill="url(#paint19_radial_2287_19746)"/>
<path id="Vector_26" style="mix-blend-mode:screen" fill-rule="evenodd" clip-rule="evenodd" d="M9.83203 0.373934C9.83203 0.373934 9.14581 1.84215 8.83979 2.62869C8.53996 3.40598 7.7301 5.60213 7.7301 5.60213C7.7301 5.60213 8.69761 3.53553 8.99126 2.87854C9.288 2.21846 9.83203 0.37085 9.83203 0.37085V0.373934Z" fill="url(#paint20_radial_2287_19746)"/>
<path id="Vector_27" style="mix-blend-mode:screen" fill-rule="evenodd" clip-rule="evenodd" d="M12.5919 5.96221C11.7975 5.99923 12.0139 10.9992 13.5099 10.6599C15.0184 10.3175 17.924 7.11581 17.9487 6.78268C17.9703 6.49274 13.4079 5.92211 12.5919 5.96221Z" fill="url(#paint21_radial_2287_19746)"/>
<path id="Vector_28" style="mix-blend-mode:screen" fill-rule="evenodd" clip-rule="evenodd" d="M2.42911 6.73003C2.27455 6.45859 7.55718 5.98358 7.63446 5.90338C7.71483 5.82319 9.84148 0.696775 10.0579 0.502452C10.2773 0.305045 8.67306 6.14397 8.40413 6.48327C8.13521 6.82256 2.58366 7.00146 2.42911 6.73003Z" fill="url(#paint22_radial_2287_19746)"/>
<path id="Vector_29" style="mix-blend-mode:screen" fill-rule="evenodd" clip-rule="evenodd" d="M10.0303 13.5039C10.0303 13.5039 10.0303 13.5039 10.0241 13.51C9.85406 13.6118 6.14169 15.9005 5.34729 16.1658C5.53584 15.8604 6.07678 14.0128 7.47394 13.4144C8.96383 12.7759 10.0303 13.5039 10.0303 13.5039Z" fill="url(#paint23_radial_2287_19746)"/>
<path id="Vector_30" fill-rule="evenodd" clip-rule="evenodd" d="M9.42994 1.23966C9.31248 1.19339 8.74682 2.73872 8.34498 3.69182C7.94932 4.63259 7.63403 5.90031 7.63403 5.90031C7.63403 5.90031 9.5474 1.28592 9.42994 1.23657V1.23966Z" fill="white"/>
<path id="Vector_31" style="mix-blend-mode:screen" opacity="0.5" fill-rule="evenodd" clip-rule="evenodd" d="M4.82778 11.1781C4.76596 11.2861 4.28685 13.7752 4.36721 13.8647C4.44758 13.9541 5.17089 14.0621 5.25744 13.8647C5.34708 13.6642 6.20021 10.9468 5.98693 10.9468C5.77365 10.9468 4.93906 10.99 4.83087 11.1781H4.82778Z" fill="url(#paint24_radial_2287_19746)"/>
<path id="Vector_32" fill-rule="evenodd" clip-rule="evenodd" d="M9.24769 3.64593C8.40692 3.60892 8.23382 6.0179 8.61402 5.76189C8.99731 5.50587 9.61861 3.66135 9.24769 3.64593Z" fill="white"/>
<path id="Vector_33" style="mix-blend-mode:multiply" opacity="0.5" fill-rule="evenodd" clip-rule="evenodd" d="M9.49796 13.9477C9.47324 13.9323 10.0111 13.593 10.0451 13.593C10.0791 13.593 11.8966 14.6849 11.9028 14.7404C11.909 14.796 11.8286 15.3142 11.7359 15.2895C11.6432 15.2648 9.55051 13.9786 9.49487 13.9477H9.49796Z" fill="url(#paint25_linear_2287_19746)"/>
<path id="Vector_34" style="mix-blend-mode:multiply" opacity="0.5" fill-rule="evenodd" clip-rule="evenodd" d="M2.57728 8.74353C2.364 8.25927 4.48756 10.1439 4.8523 10.6744C4.97904 10.6682 6.07636 10.6744 6.03618 10.6497C5.996 10.6251 3.50151 8.37956 3.21095 8.37339C2.92039 8.36722 2.23417 8.20992 2.57728 8.74045V8.74353Z" fill="url(#paint26_linear_2287_19746)"/>
<path id="Vector_35" style="mix-blend-mode:screen" opacity="0.5" fill-rule="evenodd" clip-rule="evenodd" d="M7.37144 2.95824C7.32199 3.03843 6.15975 5.78671 6.37303 5.80521C6.58631 5.82372 7.54145 5.79288 7.54145 5.79288C7.54145 5.79288 8.38222 3.23584 8.41004 3.0045C8.44095 2.77317 7.36835 2.96132 7.36835 2.96132L7.37144 2.95824Z" fill="url(#paint27_radial_2287_19746)"/>
<path id="Vector_36" style="mix-blend-mode:multiply" opacity="0.5" fill-rule="evenodd" clip-rule="evenodd" d="M4.91749 10.7308C4.91749 10.7308 4.97931 10.5673 5.45843 10.6043C5.93754 10.6413 6.1601 10.6599 6.13228 10.7462C6.10446 10.8326 5.76753 12.4612 5.67171 12.4982C5.57589 12.5352 4.56202 12.2977 4.58675 12.1651C4.61148 12.0355 4.9144 10.7308 4.9144 10.7308H4.91749Z" fill="url(#paint28_linear_2287_19746)"/>
<path id="Vector_37" style="mix-blend-mode:screen" opacity="0.5" fill-rule="evenodd" clip-rule="evenodd" d="M14.8427 16.1872C14.6078 16.3723 10.0299 13.5037 10.0299 13.5037C10.0299 13.5037 6.2372 15.8479 5.3717 16.1563C6.37012 12.8559 9.16444 3.74438 9.88466 3.84308C10.5585 3.92945 13.563 11.5605 14.7964 15.2834V15.2896C14.8705 15.7924 14.8984 16.1409 14.8396 16.1903L14.8427 16.1872Z" fill="url(#paint29_radial_2287_19746)"/>
<path id="Vector_38" fill-rule="evenodd" clip-rule="evenodd" d="M10.8863 13.8806C10.8337 13.9145 13.1953 15.3303 13.5477 15.537C13.9001 15.7436 14.5677 16.2156 14.1566 15.7498C13.7455 15.281 10.9388 13.8498 10.8832 13.8837L10.8863 13.8806Z" fill="white"/>
</g>
</g>
</g>
</g>
<defs>
<radialGradient id="paint0_radial_2287_19746" cx="0" cy="0" r="1" gradientUnits="userSpaceOnUse" gradientTransform="translate(9.60336 -1.35114) scale(2.49758 2.49226)">
<stop stop-color="#FFF261"/>
<stop offset="0.11" stop-color="#FAED5F"/>
<stop offset="0.23" stop-color="#ECE05A"/>
<stop offset="0.36" stop-color="#D6CB51"/>
<stop offset="0.5" stop-color="#B6AD45"/>
<stop offset="0.64" stop-color="#8E8636"/>
<stop offset="0.78" stop-color="#5C5723"/>
<stop offset="0.92" stop-color="#22210D"/>
<stop offset="1"/>
</radialGradient>
<linearGradient id="paint1_linear_2287_19746" x1="12.0206" y1="13.6828" x2="4.1144" y2="2.57819" gradientUnits="userSpaceOnUse">
<stop stop-color="#FF5900"/>
<stop offset="0.23" stop-color="#FE6800"/>
<stop offset="0.66" stop-color="#FA9300"/>
<stop offset="0.85" stop-color="#F66A00"/>
<stop offset="1" stop-color="#F63F00"/>
</linearGradient>
<radialGradient id="paint2_radial_2287_19746" cx="0" cy="0" r="1" gradientUnits="userSpaceOnUse" gradientTransform="translate(0.602286 4.94702) scale(3.44035 3.43303)">
<stop stop-color="#FFF261"/>
<stop offset="0.11" stop-color="#FAED5F"/>
<stop offset="0.23" stop-color="#ECE05A"/>
<stop offset="0.36" stop-color="#D6CB51"/>
<stop offset="0.5" stop-color="#B6AD45"/>
<stop offset="0.64" stop-color="#8E8636"/>
<stop offset="0.78" stop-color="#5C5723"/>
<stop offset="0.92" stop-color="#22210D"/>
<stop offset="1"/>
</radialGradient>
<linearGradient id="paint3_linear_2287_19746" x1="8.61412" y1="5.15708" x2="8.23245" y2="-1.21556" gradientUnits="userSpaceOnUse">
<stop stop-color="#DE376D"/>
<stop offset="0.99" stop-color="white"/>
</linearGradient>
<linearGradient id="paint4_linear_2287_19746" x1="5.66533" y1="15.5367" x2="4.90475" y2="13.2902" gradientUnits="userSpaceOnUse">
<stop stop-color="#DE376D"/>
<stop offset="0.99" stop-color="white"/>
</linearGradient>
<linearGradient id="paint5_linear_2287_19746" x1="5.67767" y1="15.5672" x2="4.96944" y2="13.4812" gradientUnits="userSpaceOnUse">
<stop stop-color="#DE376D"/>
<stop offset="0.99" stop-color="white"/>
</linearGradient>
<linearGradient id="paint6_linear_2287_19746" x1="11.5227" y1="13.8589" x2="12.3785" y2="17.6135" gradientUnits="userSpaceOnUse">
<stop stop-color="#DE376D"/>
<stop offset="0.99" stop-color="white"/>
</linearGradient>
<linearGradient id="paint7_linear_2287_19746" x1="10.243" y1="13.9537" x2="10.3046" y2="16.1406" gradientUnits="userSpaceOnUse">
<stop stop-color="#DE376D"/>
<stop offset="0.99" stop-color="white"/>
</linearGradient>
<linearGradient id="paint8_linear_2287_19746" x1="3.14307" y1="9.54987" x2="1.61244" y2="13.3769" gradientUnits="userSpaceOnUse">
<stop stop-color="#DE376D"/>
<stop offset="0.99" stop-color="white"/>
</linearGradient>
<linearGradient id="paint9_linear_2287_19746" x1="2.12908" y1="7.03601" x2="2.13832" y2="7.46784" gradientUnits="userSpaceOnUse">
<stop stop-color="#DE376D"/>
<stop offset="0.99" stop-color="white"/>
</linearGradient>
<linearGradient id="paint10_linear_2287_19746" x1="2.32406" y1="8.4692" x2="7.58284" y2="10.2124" gradientUnits="userSpaceOnUse">
<stop stop-color="#DE376D"/>
<stop offset="0.99" stop-color="white"/>
</linearGradient>
<radialGradient id="paint11_radial_2287_19746" cx="0" cy="0" r="1" gradientUnits="userSpaceOnUse" gradientTransform="translate(12.4427 3.97572) rotate(180) scale(10.2425 10.7587)">
<stop stop-color="#FCF800"/>
<stop offset="1" stop-color="#FC9700"/>
</radialGradient>
<radialGradient id="paint12_radial_2287_19746" cx="0" cy="0" r="1" gradientUnits="userSpaceOnUse" gradientTransform="translate(10.3262 1.06397) scale(15.2173 15.1849)">
<stop stop-color="#FCF800"/>
<stop offset="0.53" stop-color="#FC9700"/>
<stop offset="0.71" stop-color="#FE8500"/>
<stop offset="1" stop-color="#FC9700"/>
</radialGradient>
<linearGradient id="paint13_linear_2287_19746" x1="3.28249" y1="17.2576" x2="7.97059" y2="12.4173" gradientUnits="userSpaceOnUse">
<stop stop-color="#DE376D"/>
<stop offset="0.99" stop-color="white"/>
</linearGradient>
<linearGradient id="paint14_linear_2287_19746" x1="11.7086" y1="7.92078" x2="2.20254" y2="5.72192" gradientUnits="userSpaceOnUse">
<stop stop-color="#DE376D"/>
<stop offset="0.99" stop-color="white"/>
</linearGradient>
<linearGradient id="paint15_linear_2287_19746" x1="4.08551" y1="7.64653" x2="6.96863" y2="8.43001" gradientUnits="userSpaceOnUse">
<stop stop-color="#DE376D"/>
<stop offset="0.99" stop-color="white"/>
</linearGradient>
<radialGradient id="paint16_radial_2287_19746" cx="0" cy="0" r="1" gradientUnits="userSpaceOnUse" gradientTransform="translate(16.0022 16.2892) scale(4.70769 4.69767)">
<stop stop-color="#FFF261"/>
<stop offset="0.11" stop-color="#FAED5F"/>
<stop offset="0.23" stop-color="#ECE05A"/>
<stop offset="0.36" stop-color="#D6CB51"/>
<stop offset="0.5" stop-color="#B6AD45"/>
<stop offset="0.64" stop-color="#8E8636"/>
<stop offset="0.78" stop-color="#5C5723"/>
<stop offset="0.92" stop-color="#22210D"/>
<stop offset="1"/>
</radialGradient>
<radialGradient id="paint17_radial_2287_19746" cx="0" cy="0" r="1" gradientUnits="userSpaceOnUse" gradientTransform="translate(-3.1199 0.166384) scale(17.9374 17.8993)">
<stop stop-color="#FFF261"/>
<stop offset="0.11" stop-color="#FAED5F"/>
<stop offset="0.23" stop-color="#ECE05A"/>
<stop offset="0.36" stop-color="#D6CB51"/>
<stop offset="0.5" stop-color="#B6AD45"/>
<stop offset="0.64" stop-color="#8E8636"/>
<stop offset="0.78" stop-color="#5C5723"/>
<stop offset="0.92" stop-color="#22210D"/>
<stop offset="1"/>
</radialGradient>
<radialGradient id="paint18_radial_2287_19746" cx="0" cy="0" r="1" gradientUnits="userSpaceOnUse" gradientTransform="translate(5.43978 14.1262) scale(2.36157 2.35655)">
<stop stop-color="#FFF261"/>
<stop offset="0.11" stop-color="#FAED5F"/>
<stop offset="0.23" stop-color="#ECE05A"/>
<stop offset="0.36" stop-color="#D6CB51"/>
<stop offset="0.5" stop-color="#B6AD45"/>
<stop offset="0.64" stop-color="#8E8636"/>
<stop offset="0.78" stop-color="#5C5723"/>
<stop offset="0.92" stop-color="#22210D"/>
<stop offset="1"/>
</radialGradient>
<radialGradient id="paint19_radial_2287_19746" cx="0" cy="0" r="1" gradientUnits="userSpaceOnUse" gradientTransform="translate(13.6956 19.8152) scale(4.52223 4.5126)">
<stop stop-color="#FFF261"/>
<stop offset="0.11" stop-color="#FAED5F"/>
<stop offset="0.23" stop-color="#ECE05A"/>
<stop offset="0.36" stop-color="#D6CB51"/>
<stop offset="0.5" stop-color="#B6AD45"/>
<stop offset="0.64" stop-color="#8E8636"/>
<stop offset="0.78" stop-color="#5C5723"/>
<stop offset="0.92" stop-color="#22210D"/>
<stop offset="1"/>
</radialGradient>
<radialGradient id="paint20_radial_2287_19746" cx="0" cy="0" r="1" gradientUnits="userSpaceOnUse" gradientTransform="translate(9.41473 1.94394) scale(3.00451 2.99812)">
<stop stop-color="#FFF261"/>
<stop offset="0.11" stop-color="#FAED5F"/>
<stop offset="0.23" stop-color="#ECE05A"/>
<stop offset="0.36" stop-color="#D6CB51"/>
<stop offset="0.5" stop-color="#B6AD45"/>
<stop offset="0.64" stop-color="#8E8636"/>
<stop offset="0.78" stop-color="#5C5723"/>
<stop offset="0.92" stop-color="#22210D"/>
<stop offset="1"/>
</radialGradient>
<radialGradient id="paint21_radial_2287_19746" cx="0" cy="0" r="1" gradientUnits="userSpaceOnUse" gradientTransform="translate(19.0739 4.1547) scale(5.04152 5.03079)">
<stop stop-color="#FFF261"/>
<stop offset="0.11" stop-color="#FAED5F"/>
<stop offset="0.23" stop-color="#ECE05A"/>
<stop offset="0.36" stop-color="#D6CB51"/>
<stop offset="0.5" stop-color="#B6AD45"/>
<stop offset="0.64" stop-color="#8E8636"/>
<stop offset="0.78" stop-color="#5C5723"/>
<stop offset="0.92" stop-color="#22210D"/>
<stop offset="1"/>
</radialGradient>
<radialGradient id="paint22_radial_2287_19746" cx="0" cy="0" r="1" gradientUnits="userSpaceOnUse" gradientTransform="translate(4.92978 2.5598) scale(5.36609 5.35466)">
<stop stop-color="#FFF261"/>
<stop offset="0.11" stop-color="#FAED5F"/>
<stop offset="0.23" stop-color="#ECE05A"/>
<stop offset="0.36" stop-color="#D6CB51"/>
<stop offset="0.5" stop-color="#B6AD45"/>
<stop offset="0.64" stop-color="#8E8636"/>
<stop offset="0.78" stop-color="#5C5723"/>
<stop offset="0.92" stop-color="#22210D"/>
<stop offset="1"/>
</radialGradient>
<radialGradient id="paint23_radial_2287_19746" cx="0" cy="0" r="1" gradientUnits="userSpaceOnUse" gradientTransform="translate(8.49708 17.7173) scale(3.80819 3.80008)">
<stop stop-color="#FFF261"/>
<stop offset="0.11" stop-color="#FAED5F"/>
<stop offset="0.23" stop-color="#ECE05A"/>
<stop offset="0.36" stop-color="#D6CB51"/>
<stop offset="0.5" stop-color="#B6AD45"/>
<stop offset="0.64" stop-color="#8E8636"/>
<stop offset="0.78" stop-color="#5C5723"/>
<stop offset="0.92" stop-color="#22210D"/>
<stop offset="1"/>
</radialGradient>
<radialGradient id="paint24_radial_2287_19746" cx="0" cy="0" r="1" gradientUnits="userSpaceOnUse" gradientTransform="translate(4.08902 14.1608) scale(3.91329 3.90496)">
<stop stop-color="#FCEA10"/>
<stop offset="0.12" stop-color="#CDBE0D"/>
<stop offset="0.3" stop-color="#8F8509"/>
<stop offset="0.47" stop-color="#5C5505"/>
<stop offset="0.63" stop-color="#343003"/>
<stop offset="0.78" stop-color="#171501"/>
<stop offset="0.91" stop-color="#060500"/>
<stop offset="1"/>
</radialGradient>
<linearGradient id="paint25_linear_2287_19746" x1="10.2336" y1="15.1322" x2="8.93885" y2="16.8097" gradientUnits="userSpaceOnUse">
<stop stop-color="#DE376D"/>
<stop offset="0.99" stop-color="white"/>
</linearGradient>
<linearGradient id="paint26_linear_2287_19746" x1="3.10894" y1="10.3598" x2="1.80329" y2="11.2878" gradientUnits="userSpaceOnUse">
<stop stop-color="#DE376D"/>
<stop offset="0.99" stop-color="white"/>
</linearGradient>
<radialGradient id="paint27_radial_2287_19746" cx="0" cy="0" r="1" gradientUnits="userSpaceOnUse" gradientTransform="translate(7.99893 2.82252) scale(3.95656 3.94814)">
<stop stop-color="#FCEA10"/>
<stop offset="0.12" stop-color="#CDBE0D"/>
<stop offset="0.3" stop-color="#8F8509"/>
<stop offset="0.47" stop-color="#5C5505"/>
<stop offset="0.63" stop-color="#343003"/>
<stop offset="0.78" stop-color="#171501"/>
<stop offset="0.91" stop-color="#060500"/>
<stop offset="1"/>
</radialGradient>
<linearGradient id="paint28_linear_2287_19746" x1="5.48316" y1="10.9991" x2="5.0983" y2="12.4092" gradientUnits="userSpaceOnUse">
<stop stop-color="#DE376D"/>
<stop offset="0.99" stop-color="white"/>
</linearGradient>
<radialGradient id="paint29_radial_2287_19746" cx="0" cy="0" r="1" gradientUnits="userSpaceOnUse" gradientTransform="translate(11.1767 4.17929) scale(6.00285 5.99007)">
<stop stop-color="#FCEA10"/>
<stop offset="0.12" stop-color="#CDBE0D"/>
<stop offset="0.3" stop-color="#8F8509"/>
<stop offset="0.47" stop-color="#5C5505"/>
<stop offset="0.63" stop-color="#343003"/>
<stop offset="0.78" stop-color="#171501"/>
<stop offset="0.91" stop-color="#060500"/>
<stop offset="1"/>
</radialGradient>
<clipPath id="clip0_2287_19746">
<rect width="17.8231" height="16.2028" fill="white" transform="translate(0.515503 -0.0078125)"/>
</clipPath>
</defs>
</svg>
