<svg width="21" height="18" viewBox="0 0 21 18" fill="none" xmlns="http://www.w3.org/2000/svg">
<g id="Group">
<g id="_&#229;&#156;&#150;&#229;&#177;&#164;_2">
<g id="_0">
<path id="Vector" fill-rule="evenodd" clip-rule="evenodd" d="M1.22668 7.1511C1.32176 7.11441 5.61729 9.26707 7.98977 7.93796C9.45043 9.52392 10.5826 10.8775 10.5826 10.8775L10.4184 14.8077L3.96217 13.2707L1.22668 7.1511Z" fill="url(#paint0_linear_2581_5721)"/>
<path id="Vector_2" fill-rule="evenodd" clip-rule="evenodd" d="M10.5869 10.8775L10.4227 14.8078L3.96644 13.2748L1.23096 7.15115C1.28281 7.13076 2.50147 7.72193 3.99237 8.08886C3.99237 8.08886 3.99237 8.08886 4.00101 8.08886C5.24559 8.39871 6.68464 8.54549 7.77797 8.04809C7.85144 8.01547 7.9249 7.97878 7.99404 7.93801C9.4547 9.52804 10.5869 10.8775 10.5869 10.8775Z" fill="url(#paint1_linear_2581_5721)"/>
<path id="Vector_3" style="mix-blend-mode:multiply" opacity="0.5" fill-rule="evenodd" clip-rule="evenodd" d="M10.5869 10.8775L10.4227 14.8077L3.96644 13.2748L1.23096 7.15112C1.23096 7.15112 1.51185 7.25713 1.92239 7.41613C1.97857 7.44059 2.03907 7.46098 2.09957 7.48544C2.36318 7.58736 2.67865 7.70152 3.02868 7.81568C3.04165 7.84421 3.33551 8.19891 4.26894 8.51284C5.11595 8.79823 6.48585 8.66369 7.05629 8.27638C7.28965 8.23153 7.51004 8.1663 7.71747 8.07253C7.73908 8.06437 7.76068 8.05622 7.77797 8.04806C7.85144 8.01545 7.9249 7.97876 7.99404 7.93799C9.4547 9.52802 10.5869 10.8775 10.5869 10.8775Z" fill="url(#paint2_linear_2581_5721)"/>
<path id="Vector_4" fill-rule="evenodd" clip-rule="evenodd" d="M1.26555 7.15503C1.26555 7.15503 3.65964 8.61868 5.26723 8.85514C6.77109 9.07938 7.10817 8.43113 7.10817 8.43113C7.10817 8.43113 6.99581 9.23838 6.55934 9.44223C6.12287 9.64608 5.15487 9.54008 3.91029 9.23838C2.66571 8.93668 1.26123 7.15503 1.26123 7.15503H1.26555Z" fill="url(#paint3_linear_2581_5721)"/>
<path id="Vector_5" fill-rule="evenodd" clip-rule="evenodd" d="M19.7441 7.15105C19.6491 7.11436 15.3535 9.26702 12.9811 7.93791C11.5204 9.52387 10.3882 10.8774 10.3882 10.8774L10.5524 14.8077L17.0087 13.2706L19.7485 7.14697L19.7441 7.15105Z" fill="url(#paint4_linear_2581_5721)"/>
<path id="Vector_6" fill-rule="evenodd" clip-rule="evenodd" d="M10.3882 10.8775L10.5524 14.8078L17.0087 13.2748L19.7441 7.15115C19.6923 7.13076 18.4736 7.72193 16.9827 8.08886C16.9827 8.08886 16.9827 8.08886 16.9741 8.08886C15.7295 8.39871 14.2905 8.54549 13.1971 8.04809C13.1237 8.01547 13.0502 7.97878 12.9811 7.93801C11.5204 9.52804 10.3882 10.8775 10.3882 10.8775Z" fill="url(#paint5_linear_2581_5721)"/>
<path id="Vector_7" style="mix-blend-mode:multiply" opacity="0.5" fill-rule="evenodd" clip-rule="evenodd" d="M10.3882 10.8775L10.5524 14.8077L17.0087 13.2748L19.7441 7.15112C19.7441 7.15112 19.4633 7.25713 19.0527 7.41613C18.9965 7.44059 18.936 7.46098 18.8755 7.48544C18.6119 7.58736 18.2965 7.70152 17.9464 7.81568C17.9335 7.84421 17.6396 8.19891 16.7062 8.51284C15.8592 8.79823 14.4893 8.66369 13.9188 8.27638C13.6855 8.23153 13.4651 8.1663 13.2576 8.07253C13.236 8.06437 13.2144 8.05622 13.1971 8.04806C13.1237 8.01545 13.0502 7.97876 12.9811 7.93799C11.5204 9.52802 10.3882 10.8775 10.3882 10.8775Z" fill="url(#paint6_linear_2581_5721)"/>
<path id="Vector_8" fill-rule="evenodd" clip-rule="evenodd" d="M19.7053 7.15503C19.7053 7.15503 17.3112 8.61868 15.7036 8.85514C14.1997 9.07938 13.8627 8.43113 13.8627 8.43113C13.8627 8.43113 13.975 9.23838 14.4115 9.44223C14.848 9.64608 15.816 9.54008 17.0606 9.23838C18.3051 8.93668 19.7096 7.15503 19.7096 7.15503H19.7053Z" fill="url(#paint7_linear_2581_5721)"/>
<path id="Vector_9" style="mix-blend-mode:screen" fill-rule="evenodd" clip-rule="evenodd" d="M19.7053 7.15503C19.7053 7.15503 17.3112 8.61868 15.7036 8.85514C14.1997 9.07938 13.8627 8.43113 13.8627 8.43113C13.8627 8.43113 13.975 9.23838 14.4115 9.44223C14.848 9.64608 15.816 9.54008 17.0606 9.23838C18.3051 8.93668 19.7096 7.15503 19.7096 7.15503H19.7053Z" fill="url(#paint8_radial_2581_5721)"/>
<path id="Vector_10" fill-rule="evenodd" clip-rule="evenodd" d="M10.5004 16.4956C10.5004 16.4956 10.5004 16.4956 10.5004 16.4997V16.4956H4.47632L4.60596 17.2988C4.76153 17.7391 7.15995 18 10.5004 18C10.5004 18 10.5004 18 10.5004 17.9959C10.5004 17.9959 10.5004 17.9959 10.5004 18C13.8366 18 16.2393 17.7391 16.3949 17.2988L16.5246 16.4956H10.5004Z" fill="url(#paint9_radial_2581_5721)"/>
<path id="Vector_11" style="mix-blend-mode:multiply" opacity="0.5" fill-rule="evenodd" clip-rule="evenodd" d="M10.5005 16.4956C10.5005 16.4956 10.5005 16.4956 10.5005 16.4997V16.4956H5.224C6.57229 16.6791 7.91627 17.1846 9.00096 17.9796C9.47632 17.9919 9.97329 18 10.5005 18C10.5005 18 10.5005 18 10.5005 17.9959C10.5005 17.9959 10.5005 17.9959 10.5005 18C13.8367 18 16.2394 17.7391 16.395 17.2988L16.5246 16.4956H10.5005Z" fill="url(#paint10_linear_2581_5721)"/>
<path id="Vector_12" fill-rule="evenodd" clip-rule="evenodd" d="M1.36065 7.22444C1.36065 7.22444 4.37703 9.61357 6.6458 9.43011C7.95952 9.3241 8.55588 5.94019 8.55588 5.94019C8.55588 5.94019 8.10645 8.82671 7.30698 9.80111C6.50751 10.7755 2.12987 10.4004 1.61994 9.52795C1.11433 8.65547 1.36065 7.22852 1.36065 7.22852V7.22444Z" fill="url(#paint11_linear_2581_5721)"/>
<path id="Vector_13" fill-rule="evenodd" clip-rule="evenodd" d="M20.5523 7.12661C20.3621 6.87792 20.0294 6.8983 19.5454 7.30193C18.4693 8.19887 15.6215 9.49128 14.4936 9.00612C13.1064 8.4068 11.6069 2.10781 11.4037 1.23126C11.2006 0.387316 10.5222 0.00407701 10.5006 0C10.4833 0.00407701 9.80048 0.387316 9.59737 1.22718C9.39427 2.10781 7.89472 8.4068 6.50753 9.00204C5.37963 9.4872 2.53178 8.19479 1.45574 7.29785C0.967415 6.89015 0.634662 6.87384 0.44884 7.12254C0.306231 7.31008 0.396982 7.68109 0.496376 7.9094L4.47644 16.4915C4.51966 16.6057 4.74005 16.7035 5.09441 16.7891C6.1186 17.046 8.23179 17.1724 10.3709 17.1724C10.4098 17.1724 10.453 17.1724 10.4919 17.1724H10.5092C10.5481 17.1724 10.5913 17.1724 10.6302 17.1724C12.7693 17.1724 14.8825 17.046 15.9067 16.7891C16.2611 16.7035 16.4815 16.6057 16.5247 16.4915L20.5047 7.9094C20.5998 7.68109 20.6949 7.31008 20.5523 7.12254V7.12661Z" fill="url(#paint12_radial_2581_5721)"/>
<path id="Vector_14" style="mix-blend-mode:multiply" opacity="0.5" fill-rule="evenodd" clip-rule="evenodd" d="M20.5523 7.12661C20.3621 6.87792 20.0294 6.8983 19.5454 7.30193C18.4693 8.19887 15.6215 9.49128 14.4936 9.00612C13.1064 8.4068 11.6069 2.10781 11.4037 1.23126C11.2006 0.387316 10.5222 0.00407701 10.5006 0C10.4833 0.00407701 9.80048 0.387316 9.59737 1.22718C9.39427 2.10781 7.89472 8.4068 6.50753 9.00204C5.37963 9.4872 2.53178 8.19479 1.45574 7.29785C0.967415 6.89015 0.634662 6.87384 0.44884 7.12254C0.306231 7.31008 0.396982 7.68109 0.496376 7.9094L4.47644 16.4915C4.51966 16.6057 4.74005 16.7035 5.09441 16.7891C6.1186 17.046 8.23179 17.1724 10.3709 17.1724C10.4098 17.1724 10.453 17.1724 10.4919 17.1724H10.5092C10.5481 17.1724 10.5913 17.1724 10.6302 17.1724C12.7693 17.1724 14.8825 17.046 15.9067 16.7891C16.2611 16.7035 16.4815 16.6057 16.5247 16.4915L20.5047 7.9094C20.5998 7.68109 20.6949 7.31008 20.5523 7.12254V7.12661Z" fill="url(#paint13_linear_2581_5721)"/>
<path id="Vector_15" style="mix-blend-mode:screen" d="M7.22493 17.148L7.20332 17.89C6.55942 17.837 6.01924 17.7759 5.60006 17.6943L5.59142 16.9034C5.59142 16.9034 5.59142 16.9034 5.59142 16.8953C5.57413 16.8545 5.52227 16.7118 5.43584 16.4916C5.0037 15.3215 2.9294 9.66263 2.27686 7.8606C3.38315 8.52515 4.31659 8.81869 5.20681 9.03477C5.22409 9.10001 6.61128 15.4234 7.00021 16.4957C7.09529 16.7648 7.16875 16.9727 7.20332 17.0746C7.22493 17.1236 7.22925 17.1521 7.22925 17.1521L7.22493 17.148Z" fill="url(#paint14_radial_2581_5721)"/>
<path id="Vector_16" style="mix-blend-mode:multiply" opacity="0.5" fill-rule="evenodd" clip-rule="evenodd" d="M13.9275 13.6131L12.5792 16.0675L10.5956 16.6994L10.4833 7.412L10.4962 0C10.4962 0 10.5265 0.016308 10.574 0.0407701C10.6 0.0611551 10.6345 0.0856172 10.6691 0.118233C10.7123 0.146772 10.7555 0.187542 10.8031 0.228313C11.0191 0.428086 11.2827 0.754247 11.3994 1.22718C11.3994 1.23941 11.3994 1.25164 11.4124 1.26387C11.6457 2.27089 13.1194 8.41495 14.4893 9.00611C14.6492 9.07542 14.848 9.10804 15.0727 9.11212C14.3812 11.0732 13.7676 13.7681 13.9232 13.6131H13.9275Z" fill="url(#paint15_linear_2581_5721)"/>
<path id="Vector_17" d="M16.2091 16.6708C16.0881 16.7075 15.9671 16.732 15.8418 16.7524C15.5912 16.7932 15.3405 16.8176 15.0856 16.838C14.5799 16.8828 14.07 16.9032 13.5601 16.9236C12.5402 16.9562 11.5203 16.9725 10.5005 16.9725C9.48062 16.9766 8.46076 16.9603 7.44089 16.9318C6.93096 16.9114 6.42103 16.891 5.91541 16.8462C5.66045 16.8258 5.4098 16.8013 5.15916 16.7565C5.03384 16.7361 4.91283 16.7075 4.79183 16.6708C4.67515 16.6341 4.54551 16.5934 4.47205 16.4955C4.61033 16.7157 4.89555 16.7809 5.13323 16.8625C5.37955 16.9358 5.63452 16.9929 5.88516 17.0459C6.39077 17.1397 6.90503 17.2049 7.41928 17.2539C8.44347 17.3517 9.4763 17.3843 10.5048 17.3884C11.5333 17.3843 12.5618 17.3476 13.586 17.2457C14.1003 17.1968 14.6102 17.1315 15.1201 17.0378C15.3751 16.9889 15.6257 16.9318 15.8721 16.8584C15.9974 16.8217 16.1184 16.7809 16.2394 16.7279C16.3517 16.6708 16.4857 16.6097 16.5289 16.4915C16.4641 16.5975 16.3301 16.6341 16.2135 16.6708H16.2091Z" fill="url(#paint16_radial_2581_5721)"/>
<path id="Vector_18" d="M16.2091 16.6708C16.0881 16.7075 15.9671 16.732 15.8418 16.7524C15.5912 16.7932 15.3405 16.8176 15.0856 16.838C14.5799 16.8828 14.07 16.9032 13.5601 16.9236C12.5402 16.9562 11.5203 16.9725 10.5005 16.9725C9.48062 16.9766 8.46076 16.9603 7.44089 16.9318C6.93096 16.9114 6.42103 16.891 5.91541 16.8462C5.66045 16.8258 5.4098 16.8013 5.15916 16.7565C5.03384 16.7361 4.91283 16.7075 4.79183 16.6708C4.67515 16.6341 4.54551 16.5934 4.47205 16.4955C4.61033 16.7157 4.89555 16.7809 5.13323 16.8625C5.37955 16.9358 5.63452 16.9929 5.88516 17.0459C6.39077 17.1397 6.90503 17.2049 7.41928 17.2539C8.44347 17.3517 9.4763 17.3843 10.5048 17.3884C11.5333 17.3843 12.5618 17.3476 13.586 17.2457C14.1003 17.1968 14.6102 17.1315 15.1201 17.0378C15.3751 16.9889 15.6257 16.9318 15.8721 16.8584C15.9974 16.8217 16.1184 16.7809 16.2394 16.7279C16.3517 16.6708 16.4857 16.6097 16.5289 16.4915C16.4641 16.5975 16.3301 16.6341 16.2135 16.6708H16.2091Z" fill="url(#paint17_radial_2581_5721)"/>
<path id="Vector_19" style="mix-blend-mode:multiply" opacity="0.5" d="M10.4443 17.2539C7.57053 17.2539 5.94566 17.0419 5.15052 16.8299C4.57144 16.675 4.47637 16.5038 4.47205 16.4956C4.61033 16.7158 5.27152 17.5189 10.4573 17.5189C15.643 17.5189 16.4771 16.6587 16.5246 16.5038C16.5116 16.5282 16.369 16.6709 16.0881 16.7688C15.4399 16.993 13.9101 17.2539 10.4486 17.2539H10.4443Z" fill="url(#paint18_linear_2581_5721)"/>
<path id="Vector_20" style="mix-blend-mode:screen" fill-rule="evenodd" clip-rule="evenodd" d="M10.5005 0.00815402C10.0641 0.652322 9.75725 1.84281 9.18249 3.87724C8.51699 6.21336 7.9552 9.11619 6.86187 9.6299C4.61039 10.4861 0.708106 7.00023 0.699463 6.97169C0.75132 6.96353 0.807499 6.96353 0.868 6.97169C1.03222 7.00023 1.22668 7.10623 1.45572 7.29785C2.53176 8.19479 5.3796 9.4872 6.50751 9.00204C7.27241 8.6718 8.07188 6.60476 8.66392 4.66818C9.15224 3.09853 9.50228 1.61857 9.59303 1.2231C9.69674 0.803171 9.91714 0.497395 10.1159 0.297622C10.2888 0.118233 10.4444 0.0203851 10.4876 0C10.4962 0.00407701 10.5005 0.00815402 10.5005 0.00407701V0.00815402Z" fill="url(#paint19_radial_2581_5721)"/>
<path id="Vector_21" style="mix-blend-mode:screen" opacity="0.65" fill-rule="evenodd" clip-rule="evenodd" d="M10.4178 0.0446777C10.3314 0.305606 9.99438 0.864157 9.76108 1.82225C9.34199 3.53052 8.54271 5.95634 7.68726 7.35476C8.04585 6.56789 8.37853 5.60572 8.66368 4.67208C9.15189 3.10244 9.50185 1.62248 9.59258 1.22701C9.69627 0.807079 9.91661 0.501303 10.1154 0.301529C10.2363 0.175142 10.3487 0.0936019 10.4178 0.0446777Z" fill="url(#paint20_radial_2581_5721)"/>
<path id="Vector_22" style="mix-blend-mode:multiply" opacity="0.5" fill-rule="evenodd" clip-rule="evenodd" d="M19.9084 8.35797C19.4157 8.15004 15.2239 10.0989 14.6405 10.7797C14.0571 11.4606 13.3527 16.4549 13.6855 16.6914C14.0182 16.9278 16.1401 16.6914 16.3605 16.3774C16.5809 16.0635 20.0337 8.41097 19.9084 8.36205V8.35797Z" fill="url(#paint21_linear_2581_5721)"/>
<path id="Vector_23" style="mix-blend-mode:screen" opacity="0.65" d="M6.02356 16.9848C6.02356 16.9848 7.38482 17.2498 10.4444 17.2498C13.504 17.2498 14.6967 17.05 14.6967 17.05C14.6967 17.05 11.5939 17.156 10.4012 17.1153C9.20848 17.0786 6.02356 16.9807 6.02356 16.9807V16.9848Z" fill="url(#paint22_radial_2581_5721)"/>
<path id="Vector_24" fill-rule="evenodd" clip-rule="evenodd" d="M13.4306 13.3522L10.4963 7.07764L7.56201 13.3522L8.60348 15.5945L10.4963 16.3936L12.3934 15.5945L13.4306 13.3522Z" fill="url(#paint23_linear_2581_5721)"/>
<path id="Vector_25" fill-rule="evenodd" clip-rule="evenodd" d="M13.6812 13.4134L10.4963 6.64966L7.31567 13.4134L8.44358 15.6884L10.4963 16.5038L12.5533 15.6884L13.6812 13.4134Z" fill="url(#paint24_linear_2581_5721)"/>
<path id="Vector_26" style="mix-blend-mode:multiply" opacity="0.8" fill-rule="evenodd" clip-rule="evenodd" d="M13.6812 13.4134L10.4963 6.64966L7.31567 13.4134L7.33296 13.4379H13.6639L13.6812 13.4134Z" fill="url(#paint25_linear_2581_5721)"/>
<path id="Vector_27" style="mix-blend-mode:screen" fill-rule="evenodd" clip-rule="evenodd" d="M7.33301 13.438L8.44362 15.6885L10.4963 16.5039L12.5533 15.6885L13.6639 13.438H7.33301Z" fill="url(#paint26_radial_2581_5721)"/>
<path id="Vector_28" fill-rule="evenodd" clip-rule="evenodd" d="M13.4306 13.3522L10.4963 7.07764L7.56201 13.3522L8.60348 15.5945L10.4963 16.3936L12.3934 15.5945L13.4306 13.3522Z" fill="url(#paint27_linear_2581_5721)"/>
<path id="Vector_29" style="mix-blend-mode:multiply" opacity="0.5" fill-rule="evenodd" clip-rule="evenodd" d="M13.4306 13.3522L10.4963 7.07764V8.88375L12.2422 13.3399L11.5075 15.301L10.4358 15.6067L9.45917 15.2765L8.60352 15.5945L10.4963 16.3936L12.3934 15.5945L13.4306 13.3522Z" fill="url(#paint28_linear_2581_5721)"/>
<path id="Vector_30" style="mix-blend-mode:multiply" opacity="0.8" d="M13.4257 13.3521L12.2333 13.3398L11.5074 15.3009L12.3888 15.5985L13.4257 13.3521Z" fill="url(#paint29_linear_2581_5721)"/>
<path id="Vector_31" style="mix-blend-mode:color-dodge" fill-rule="evenodd" clip-rule="evenodd" d="M10.4962 8.88379L8.72437 13.3767L9.45901 15.2765L10.4357 15.6068L11.5074 15.301L12.242 13.34L10.4962 8.88379Z" fill="url(#paint30_linear_2581_5721)"/>
<path id="Vector_32" opacity="0.75" fill-rule="evenodd" clip-rule="evenodd" d="M7.56201 13.3522L8.72422 13.3766L10.4956 8.88375V7.07764L7.56201 13.3522Z" fill="white"/>
<path id="Vector_33" fill-rule="evenodd" clip-rule="evenodd" d="M9.45898 15.2766L10.4354 15.6068L10.7638 15.5172L9.45898 15.2766Z" fill="white"/>
<path id="Vector_34" fill-rule="evenodd" clip-rule="evenodd" d="M8.07178 13.3726L8.72417 13.3766L9.39384 11.7173L8.07178 13.3726Z" fill="white"/>
<path id="Vector_35" fill-rule="evenodd" clip-rule="evenodd" d="M10.4959 7.07764L9.5022 9.4423L10.4873 8.9286L10.4959 7.07764Z" fill="white"/>
<path id="Vector_36" style="mix-blend-mode:multiply" opacity="0.8" d="M10.4354 15.6068L10.4959 16.3936C10.4959 16.3936 8.60783 15.6068 8.59919 15.5945C8.59054 15.5823 9.45464 15.2725 9.45464 15.2725L10.4311 15.6068H10.4354Z" fill="url(#paint31_linear_2581_5721)"/>
<path id="Vector_37" style="mix-blend-mode:screen" fill-rule="evenodd" clip-rule="evenodd" d="M10.4963 0C9.70977 7.51393 7.66572 8.69626 6.6156 8.94496C7.34593 8.48426 8.09786 6.51914 8.66397 4.67225C9.1523 3.1026 9.50234 1.62265 9.59309 1.22718C9.6968 0.807248 9.9172 0.501472 10.116 0.301699C10.2888 0.12231 10.4444 0.0244621 10.4876 0.00407701C10.4876 0 10.4963 0 10.4963 0Z" fill="url(#paint32_radial_2581_5721)"/>
<path id="Vector_38" style="mix-blend-mode:screen" opacity="0.65" fill-rule="evenodd" clip-rule="evenodd" d="M8.66384 4.67212C8.39158 6.25808 7.78658 8.82252 6.65004 9.42999C5.2326 10.1883 1.87914 7.75026 0.86792 6.97563C1.03214 7.00417 1.2266 7.11017 1.45564 7.30179C2.53168 8.19873 5.37953 9.49115 6.50743 9.00598C7.27233 8.67574 8.0718 6.6087 8.66384 4.67212Z" fill="url(#paint33_radial_2581_5721)"/>
<path id="Vector_39" style="mix-blend-mode:multiply" opacity="0.5" fill-rule="evenodd" clip-rule="evenodd" d="M10.7771 0.59944C10.6648 0.574978 10.6648 6.56003 10.9154 7.10635C11.1616 7.65267 12.2374 10.2823 12.596 10.1763C12.9546 10.0703 13.6718 9.0837 13.5897 8.90023C13.5076 8.71677 10.8851 0.623902 10.7771 0.59944Z" fill="url(#paint34_linear_2581_5721)"/>
<path id="Vector_40" style="mix-blend-mode:screen" fill-rule="evenodd" clip-rule="evenodd" d="M7.47132 8.79829C7.47132 8.79829 8.46503 10.0744 8.71129 9.99693C8.95756 9.91947 10.1198 7.34279 10.2019 7.08187C10.2839 6.82094 10.6425 0.420031 10.366 0.521956C10.0895 0.627959 9.20815 4.5052 8.95756 4.99851C8.7113 5.49183 7.2769 8.53736 7.467 8.79829H7.47132Z" fill="url(#paint35_radial_2581_5721)"/>
</g>
</g>
</g>
<defs>
<linearGradient id="paint0_linear_2581_5721" x1="6.02351" y1="10.2415" x2="5.63853" y2="5.69976" gradientUnits="userSpaceOnUse">
<stop stop-color="#F63F00"/>
<stop offset="0.55" stop-color="#F66A00"/>
<stop offset="1" stop-color="#FA9300"/>
</linearGradient>
<linearGradient id="paint1_linear_2581_5721" x1="6.02346" y1="10.2415" x2="5.63848" y2="5.69981" gradientUnits="userSpaceOnUse">
<stop stop-color="#F63F00"/>
<stop offset="0.55" stop-color="#F66A00"/>
<stop offset="1" stop-color="#FA9300"/>
</linearGradient>
<linearGradient id="paint2_linear_2581_5721" x1="6.23089" y1="9.38125" x2="5.58082" y2="12.2605" gradientUnits="userSpaceOnUse">
<stop stop-color="#DE376D"/>
<stop offset="0.99" stop-color="white"/>
</linearGradient>
<linearGradient id="paint3_linear_2581_5721" x1="3.74607" y1="9.65831" x2="3.9665" y2="8.62944" gradientUnits="userSpaceOnUse">
<stop stop-color="#F63F00"/>
<stop offset="0.55" stop-color="#F66A00"/>
<stop offset="1" stop-color="#FA9300"/>
</linearGradient>
<linearGradient id="paint4_linear_2581_5721" x1="14.9473" y1="10.2414" x2="15.3323" y2="5.69971" gradientUnits="userSpaceOnUse">
<stop stop-color="#F63F00"/>
<stop offset="0.55" stop-color="#F66A00"/>
<stop offset="1" stop-color="#FA9300"/>
</linearGradient>
<linearGradient id="paint5_linear_2581_5721" x1="14.9473" y1="10.2415" x2="15.3323" y2="5.69981" gradientUnits="userSpaceOnUse">
<stop stop-color="#F63F00"/>
<stop offset="0.55" stop-color="#F66A00"/>
<stop offset="1" stop-color="#FA9300"/>
</linearGradient>
<linearGradient id="paint6_linear_2581_5721" x1="14.7442" y1="9.38125" x2="15.3904" y2="12.2603" gradientUnits="userSpaceOnUse">
<stop stop-color="#DE376D"/>
<stop offset="0.99" stop-color="white"/>
</linearGradient>
<linearGradient id="paint7_linear_2581_5721" x1="16.8402" y1="8.15797" x2="17.1409" y2="10.3035" gradientUnits="userSpaceOnUse">
<stop stop-color="#F63F00"/>
<stop offset="0.55" stop-color="#F66A00"/>
<stop offset="1" stop-color="#FA9300"/>
</linearGradient>
<radialGradient id="paint8_radial_2581_5721" cx="0" cy="0" r="1" gradientUnits="userSpaceOnUse" gradientTransform="translate(18.0891 7.08164) scale(2.4762 2.33613)">
<stop stop-color="#FFF261"/>
<stop offset="0.11" stop-color="#FAED5F"/>
<stop offset="0.23" stop-color="#ECE05A"/>
<stop offset="0.36" stop-color="#D6CB51"/>
<stop offset="0.5" stop-color="#B6AD45"/>
<stop offset="0.64" stop-color="#8E8636"/>
<stop offset="0.78" stop-color="#5C5723"/>
<stop offset="0.92" stop-color="#22210D"/>
<stop offset="1"/>
</radialGradient>
<radialGradient id="paint9_radial_2581_5721" cx="0" cy="0" r="1" gradientUnits="userSpaceOnUse" gradientTransform="translate(10.4961 -6.61502) scale(10.2548 1.64471)">
<stop stop-color="#F63F00"/>
<stop offset="0.55" stop-color="#F66A00"/>
<stop offset="1" stop-color="#FA9300"/>
</radialGradient>
<linearGradient id="paint10_linear_2581_5721" x1="11.4037" y1="17.2743" x2="13.5264" y2="20.7547" gradientUnits="userSpaceOnUse">
<stop stop-color="#DE376D"/>
<stop offset="0.99" stop-color="white"/>
</linearGradient>
<linearGradient id="paint11_linear_2581_5721" x1="-1.5088" y1="12.284" x2="6.72185" y2="6.35036" gradientUnits="userSpaceOnUse">
<stop stop-color="#F63F00"/>
<stop offset="0.55" stop-color="#F66A00"/>
<stop offset="1" stop-color="#FA9300"/>
</linearGradient>
<radialGradient id="paint12_radial_2581_5721" cx="0" cy="0" r="1" gradientUnits="userSpaceOnUse" gradientTransform="translate(5.08145 7.43239) scale(10.4407 9.85006)">
<stop stop-color="#FCF800"/>
<stop offset="1" stop-color="#FC9700"/>
</radialGradient>
<linearGradient id="paint13_linear_2581_5721" x1="3.07629" y1="16.5853" x2="6.83144" y2="12.8648" gradientUnits="userSpaceOnUse">
<stop stop-color="#DE376D"/>
<stop offset="0.99" stop-color="white"/>
</linearGradient>
<radialGradient id="paint14_radial_2581_5721" cx="0" cy="0" r="1" gradientUnits="userSpaceOnUse" gradientTransform="translate(2.91643 12.4432) scale(6.41305 6.05028)">
<stop stop-color="#FFF261"/>
<stop offset="0.11" stop-color="#FAED5F"/>
<stop offset="0.23" stop-color="#ECE05A"/>
<stop offset="0.36" stop-color="#D6CB51"/>
<stop offset="0.5" stop-color="#B6AD45"/>
<stop offset="0.64" stop-color="#8E8636"/>
<stop offset="0.78" stop-color="#5C5723"/>
<stop offset="0.92" stop-color="#22210D"/>
<stop offset="1"/>
</radialGradient>
<linearGradient id="paint15_linear_2581_5721" x1="13.5342" y1="1.85096" x2="10.7388" y2="13.6128" gradientUnits="userSpaceOnUse">
<stop stop-color="#DE376D"/>
<stop offset="0.99" stop-color="white"/>
</linearGradient>
<radialGradient id="paint16_radial_2581_5721" cx="0" cy="0" r="1" gradientUnits="userSpaceOnUse" gradientTransform="translate(10.5005 16.8951) scale(4.42518 4.17486)">
<stop stop-color="#FCF800"/>
<stop offset="1" stop-color="#FC9700"/>
</radialGradient>
<radialGradient id="paint17_radial_2581_5721" cx="0" cy="0" r="1" gradientUnits="userSpaceOnUse" gradientTransform="translate(10.5005 16.8951) scale(4.42518 4.17486)">
<stop stop-color="#FCF800"/>
<stop offset="1" stop-color="#FC9700"/>
</radialGradient>
<linearGradient id="paint18_linear_2581_5721" x1="10.3968" y1="17.3232" x2="10.2851" y2="18.401" gradientUnits="userSpaceOnUse">
<stop stop-color="#DE376D"/>
<stop offset="0.99" stop-color="white"/>
</linearGradient>
<radialGradient id="paint19_radial_2581_5721" cx="0" cy="0" r="1" gradientUnits="userSpaceOnUse" gradientTransform="translate(3.69856 6.04213) scale(4.611 4.35017)">
<stop stop-color="#FFF261"/>
<stop offset="0.11" stop-color="#FAED5F"/>
<stop offset="0.23" stop-color="#ECE05A"/>
<stop offset="0.36" stop-color="#D6CB51"/>
<stop offset="0.5" stop-color="#B6AD45"/>
<stop offset="0.64" stop-color="#8E8636"/>
<stop offset="0.78" stop-color="#5C5723"/>
<stop offset="0.92" stop-color="#22210D"/>
<stop offset="1"/>
</radialGradient>
<radialGradient id="paint20_radial_2581_5721" cx="0" cy="0" r="1" gradientUnits="userSpaceOnUse" gradientTransform="translate(8.61183 4.47639) scale(4.63585 4.37463)">
<stop stop-color="#FFF0B0"/>
<stop offset="1"/>
</radialGradient>
<linearGradient id="paint21_linear_2581_5721" x1="18.9836" y1="21.2495" x2="16.8711" y2="11.8292" gradientUnits="userSpaceOnUse">
<stop stop-color="#DE376D"/>
<stop offset="0.99" stop-color="white"/>
</linearGradient>
<radialGradient id="paint22_radial_2581_5721" cx="0" cy="0" r="1" gradientUnits="userSpaceOnUse" gradientTransform="translate(9.37269 17.2457) scale(3.18924 3.00884)">
<stop stop-color="#FFF0B0"/>
<stop offset="1"/>
</radialGradient>
<linearGradient id="paint23_linear_2581_5721" x1="10.613" y1="10.0661" x2="10.3398" y2="18.7919" gradientUnits="userSpaceOnUse">
<stop stop-color="#F03A07"/>
<stop offset="0.09" stop-color="#F0360F"/>
<stop offset="0.23" stop-color="#F02B25"/>
<stop offset="0.4" stop-color="#F01A48"/>
<stop offset="0.53" stop-color="#F00C68"/>
<stop offset="0.71" stop-color="#D2096F"/>
<stop offset="1" stop-color="#9E057D"/>
</linearGradient>
<linearGradient id="paint24_linear_2581_5721" x1="10.721" y1="11.9579" x2="10.3239" y2="14.8754" gradientUnits="userSpaceOnUse">
<stop stop-color="#F63F00"/>
<stop offset="0.55" stop-color="#F66A00"/>
<stop offset="1" stop-color="#FA9300"/>
</linearGradient>
<linearGradient id="paint25_linear_2581_5721" x1="10.4963" y1="9.33641" x2="10.4963" y2="13.181" gradientUnits="userSpaceOnUse">
<stop stop-color="#960066"/>
<stop offset="1" stop-color="white"/>
</linearGradient>
<radialGradient id="paint26_radial_2581_5721" cx="0" cy="0" r="1" gradientUnits="userSpaceOnUse" gradientTransform="translate(10.3871 16.2228) scale(3.00398 1.26628)">
<stop stop-color="#FFF261"/>
<stop offset="0.11" stop-color="#FAED5F"/>
<stop offset="0.23" stop-color="#ECE05A"/>
<stop offset="0.36" stop-color="#D6CB51"/>
<stop offset="0.5" stop-color="#B6AD45"/>
<stop offset="0.64" stop-color="#8E8636"/>
<stop offset="0.78" stop-color="#5C5723"/>
<stop offset="0.92" stop-color="#22210D"/>
<stop offset="1"/>
</radialGradient>
<linearGradient id="paint27_linear_2581_5721" x1="10.613" y1="10.0661" x2="10.3398" y2="18.7919" gradientUnits="userSpaceOnUse">
<stop stop-color="#F03A07"/>
<stop offset="0.09" stop-color="#F0360F"/>
<stop offset="0.23" stop-color="#F02B25"/>
<stop offset="0.4" stop-color="#F01A48"/>
<stop offset="0.53" stop-color="#F00C68"/>
<stop offset="0.71" stop-color="#D2096F"/>
<stop offset="1" stop-color="#9E057D"/>
</linearGradient>
<linearGradient id="paint28_linear_2581_5721" x1="11.1748" y1="10.0865" x2="10.8978" y2="18.8083" gradientUnits="userSpaceOnUse">
<stop stop-color="#960066"/>
<stop offset="1" stop-color="white"/>
</linearGradient>
<linearGradient id="paint29_linear_2581_5721" x1="11.6932" y1="13.7883" x2="13.2585" y2="15.0126" gradientUnits="userSpaceOnUse">
<stop stop-color="#960066"/>
<stop offset="1" stop-color="white"/>
</linearGradient>
<linearGradient id="paint30_linear_2581_5721" x1="10.4443" y1="12.1046" x2="10.6366" y2="19.3256" gradientUnits="userSpaceOnUse">
<stop stop-color="#FF818F"/>
<stop offset="1"/>
</linearGradient>
<linearGradient id="paint31_linear_2581_5721" x1="10.66" y1="15.5945" x2="8.55347" y2="16.4334" gradientUnits="userSpaceOnUse">
<stop stop-color="#960066"/>
<stop offset="1" stop-color="white"/>
</linearGradient>
<radialGradient id="paint32_radial_2581_5721" cx="0" cy="0" r="1" gradientUnits="userSpaceOnUse" gradientTransform="translate(8.55594 4.47248) scale(3.62138 3.41653)">
<stop stop-color="#FFF261"/>
<stop offset="0.11" stop-color="#FAED5F"/>
<stop offset="0.23" stop-color="#ECE05A"/>
<stop offset="0.36" stop-color="#D6CB51"/>
<stop offset="0.5" stop-color="#B6AD45"/>
<stop offset="0.64" stop-color="#8E8636"/>
<stop offset="0.78" stop-color="#5C5723"/>
<stop offset="0.92" stop-color="#22210D"/>
<stop offset="1"/>
</radialGradient>
<radialGradient id="paint33_radial_2581_5721" cx="0" cy="0" r="1" gradientUnits="userSpaceOnUse" gradientTransform="translate(4.02259 8.22727) scale(4.63693 4.37463)">
<stop stop-color="#FFF0B0"/>
<stop offset="1"/>
</radialGradient>
<linearGradient id="paint34_linear_2581_5721" x1="24.3995" y1="4.33806" x2="8.99858" y2="5.76977" gradientUnits="userSpaceOnUse">
<stop stop-color="#DE376D"/>
<stop offset="0.99" stop-color="white"/>
</linearGradient>
<radialGradient id="paint35_radial_2581_5721" cx="0" cy="0" r="1" gradientUnits="userSpaceOnUse" gradientTransform="translate(5.54008 2.05899) scale(7.62993 7.2)">
<stop stop-color="#FFF261"/>
<stop offset="0.11" stop-color="#FAED5F"/>
<stop offset="0.23" stop-color="#ECE05A"/>
<stop offset="0.36" stop-color="#D6CB51"/>
<stop offset="0.5" stop-color="#B6AD45"/>
<stop offset="0.64" stop-color="#8E8636"/>
<stop offset="0.78" stop-color="#5C5723"/>
<stop offset="0.92" stop-color="#22210D"/>
<stop offset="1"/>
</radialGradient>
</defs>
</svg>
